<?xml version="1.0" encoding="UTF-8"?>
<svg id="Layer_1" data-name="Layer 1" xmlns="http://www.w3.org/2000/svg" viewBox="0 0 395.19 388.44">
  <defs>
    <style>
      .cls-1 {
        fill: #1c39bb;
      }

      .cls-1, .cls-2 {
        stroke-width: 0px;
      }

      .cls-2 {
        fill: #d8aa3c;
      }
    </style>
  </defs>
  <path class="cls-2" d="M172.9,2.39C70.01,18.37,11.55,91.34,1.51,170.03c-11.81,92.6,45.76,199.25,164.33,216.07,67.11,9.52,125.07-10.73,165.95-48.24l-7.64-10.52c-2.16,1.91-4.35,3.79-6.61,5.59-68.29,54.28-153.97,47.72-210.61,3.02-63.71-50.28-85.61-146.97-36.09-222.03.04-.06.07-.11.1-.16.05-.07.1-.14.14-.21-38.66,89.02-7.41,194.82,91.13,232.07,55.6,21.02,113.24,7.76,155.03-27.8l-10.82-14.91c-88.48,67.26-244.71,5.05-234.3-130.16C78.8,86.07,140.88,27.07,234.3,31.24c84.47,3.77,141.05,84.89,127.98,169.64-6.29,40.74-22.52,71.08-44.28,92.1,4.91,3.58,7.94,8.56,11.15,13.63,20.93-21.67,36.66-49.58,44.3-81.82,5.82-24.57,7.26-50.2,4.32-75.29,14.86,57.55-1.53,122.17-41.48,165.86,2.95,2.95,6.1,5.74,8.98,8.76,27.77-31.2,45.32-71.39,49.16-115.26C405.39,83.58,297.16-16.92,172.9,2.39ZM53.41,300.55C14.93,254.57,7.54,192.36,27.93,136.65c16.94-46.27,51.8-84.85,97.69-103.42C31.65,87.63,3.53,205.71,53.41,300.55Z"/>
  <g>
    <path class="cls-2" d="M243.43,73.49c4.23,36.24,22.65,67.5,47.44,93.61,4.57,4.81,22.22,1.64,17.94-2.12-25.13-22.13-39.11-54.03-43.02-87.51-.8-6.89-22.45-7.28-22.36-3.98h0Z"/>
    <path class="cls-1" d="M237.29,172.14c-9.52-9.52-9.32-25.02.44-34.29l22.53-21.4h-34.75c-2.72-8.47-12.27-48.87-67.1-42.93,7.51,2.49,13.14,5.32,17.39,8.78-71.67,7.52-95.23,126.29-34.81,186.88,7.59,7.61,15.93,13.87,24.77,18.78,8.54,4.75,13.61,13.99,13.61,23.77v12.54c5.45,1.52,10.97,2.74,16.54,3.68v-28.75c32.12,6.71,66.91-1.42,95.44-24.37l55.41,57.91,36-15.12-145.47-145.47ZM181.08,116.1c.83-4.37,4.4-7.94,8.77-8.77,7.86-1.49,14.63,5.28,13.13,13.14-.83,4.37-4.4,7.94-8.77,8.77-7.86,1.49-14.62-5.27-13.13-13.14ZM135.49,177.21c8.43,65.46,74.12,90.39,125.3,58.59l12.76,14.23c-60.27,43.3-150.5,3.27-138.06-72.83Z"/>
  </g>
</svg>