<svg xmlns="http://www.w3.org/2000/svg" xmlns:xlink="http://www.w3.org/1999/xlink" viewBox="0,0,256,256" width="64px" height="64px" fill-rule="nonzero"><g fill="none" fill-rule="nonzero" stroke="#9f1239" stroke-width="2" stroke-linecap="round" stroke-linejoin="round" stroke-miterlimit="10" stroke-dasharray="" stroke-dashoffset="0" font-family="none" font-weight="none" font-size="none" text-anchor="none" style="mix-blend-mode: normal"><g transform="scale(4,4)"><path d="M13.277,41v3.954c0,2.046 3.018,4.666 5.3,0.778c2.022,-3.446 7.043,-10.462 7.043,-10.462c1.234,-1.952 2.631,-3.977 6.633,-4.27h23.136c3.351,0.177 4.375,2.039 3.165,4.831c-3.754,6.443 -4.374,7.808 -8.127,13.791c-1.146,1.827 -4.061,3.237 -7.08,3.237h-27.62c-5.36,0 -6.449,-3.859 -6.449,-6.609v-26.662c0,-1.981 1.606,-3.588 3.588,-3.588h11.065c1.356,0 2.596,0.764 3.205,1.975l1.031,2.05c0.608,1.211 1.847,1.975 3.203,1.975h11.537c1.861,0 3.37,1.509 3.37,3.37v11.631"></path></g></g></svg>