<?xml version="1.0" encoding="utf-8"?>
<!-- Generator: Adobe Illustrator 27.0.0, SVG Export Plug-In . SVG Version: 6.00 Build 0)  -->
<svg version="1.1" id="Layer_1" xmlns="http://www.w3.org/2000/svg" xmlns:xlink="http://www.w3.org/1999/xlink" x="0px" y="0px"
	 viewBox="0 0 64 64" style="enable-background:new 0 0 64 64;" xml:space="preserve">
<style type="text/css">
	.st0{fill:none;stroke:#1C39BB;stroke-width:0.75;stroke-linecap:round;stroke-linejoin:round;stroke-miterlimit:40;}
</style>
<g>
	<g transform="scale(4,4)">
		<path class="st0" d="M3.3,10.2v1c0,0.5,0.8,1.2,1.3,0.2c0.5-0.9,1.8-2.6,1.8-2.6c0.3-0.5,0.7-1,1.7-1.1h5.8c0.8,0,1.1,0.5,0.8,1.2
			c-0.9,1.6-1.1,2-2,3.4c-0.3,0.5-1,0.8-1.8,0.8h-7c-1.3,0-1.6-1-1.6-1.7V4.9C2.3,4.4,2.7,4,3.2,4H6c0.3,0,0.6,0.2,0.8,0.5L7,5
			c0.2,0.3,0.5,0.5,0.8,0.5h2.9c0.5,0,0.8,0.4,0.8,0.8v2.9"/>
	</g>
</g>
</svg>
