<?xml version="1.0" encoding="UTF-8"?>
<svg id="Layer_1" data-name="Layer 1" xmlns="http://www.w3.org/2000/svg" viewBox="0 0 100 100">
  <defs>
    <style>
      .cls-1 {
        fill: #364a9f;
      }

      .cls-1, .cls-2 {
        stroke-width: 0px;
      }

      .cls-2 {
        fill: #d8aa3b;
      }
    </style>
  </defs>
  <path class="cls-2" d="M43.94,2.39C18.51,6.22,3.88,24.33,1.39,43.95c-2.99,22.94,11.3,49.53,40.72,53.69,16.62,2.33,31.08-2.66,41.22-11.97l-1.83-2.66c-.5.5-1,1-1.66,1.33-16.95,13.46-38.23,11.8-52.19.83-15.79-12.47-21.28-36.57-8.98-55.19h0c-9.64,21.94-1.83,48.2,22.61,57.51,13.8,5.15,28.09,1.99,38.4-6.98l-2.66-3.66c-21.94,16.62-60.67,1.33-58.18-32.25,1.83-21.44,17.12-36.24,40.39-35.07,20.94.83,34.91,20.94,31.75,42.05-1.5,10.14-5.65,17.62-10.97,22.94,1.16.83,1.99,2.16,2.83,3.32,5.15-5.32,9.14-12.3,10.97-20.28,1.5-6.15,1.83-12.47,1-18.62,3.66,14.29-.33,30.25-10.31,41.22l2.16,2.16c6.82-7.81,11.3-17.79,12.13-28.59C101.62,22.51,74.86-2.43,43.94,2.39ZM14.35,76.36c-9.64-11.47-11.47-26.93-6.32-40.72,4.16-11.47,12.8-21.11,24.27-25.6C8.87,23.5,1.89,52.76,14.35,76.36Z"/>
  <g>
    <path class="cls-2" d="M61.4,20.01c1,8.98,5.65,16.79,11.8,23.27,1.16,1.16,5.49.33,4.49-.5-6.32-5.49-9.64-13.46-10.64-21.77-.17-1.83-5.65-1.83-5.65-1h0Z"/>
    <path class="cls-1" d="M59.9,44.45c-2.33-2.33-2.33-6.15.17-8.48l5.65-5.32h-8.64c-.66-2.16-2.99-12.13-16.62-10.64,1.83.66,3.32,1.33,4.32,2.16-17.95,1.83-23.77,31.25-8.64,46.38,1.83,1.83,3.99,3.49,6.15,4.65,2.16,1.16,3.32,3.49,3.32,5.82v3.16c1.33.33,2.66.66,4.16.83v-7.15c7.98,1.66,16.62-.33,23.77-5.98l13.8,14.29,8.98-3.82-36.4-35.9ZM45.94,30.48c.17-1.16,1.16-1.99,2.16-2.16,1.99-.33,3.66,1.33,3.32,3.32-.17,1.16-1.16,1.99-2.16,2.16-1.99.33-3.66-1.33-3.32-3.32ZM34.63,45.78c2.16,16.29,18.45,22.44,31.08,14.46l3.16,3.49c-14.96,10.8-37.23.83-34.24-17.95Z"/>
  </g>
</svg>