<?xml version="1.0" encoding="utf-8"?>
<!-- Generator: Adobe Illustrator 27.0.0, SVG Export Plug-In . SVG Version: 6.00 Build 0)  -->
<svg version="1.1" id="Layer_1" xmlns="http://www.w3.org/2000/svg" xmlns:xlink="http://www.w3.org/1999/xlink" x="0px" y="0px"
	 viewBox="0 0 217 60" style="enable-background:new 0 0 217 60;" xml:space="preserve">
<style type="text/css">
	.st0{fill:#D8AA3C;}
	.st1{fill:#1C39BB;}
</style>
<g id="Background">
</g>
<g>
	<path class="st0" d="M82.8,17.7c-0.1,0.2-0.3,0.4-0.4,0.6c0.4,0.2,0.8,0.5,1.2,0.8c0.1-0.2,0.3-0.4,0.4-0.6
		c0.1-0.2,0.3-0.4,0.4-0.6c-0.4-0.4-0.8-0.7-1.2-0.8C83,17.3,82.9,17.5,82.8,17.7z"/>
	<path class="st0" d="M185.2,17.9c-0.1,0.2-0.3,0.4-0.4,0.6c0.4,0.2,0.8,0.5,1.2,0.8c0.1-0.2,0.3-0.4,0.4-0.6
		c0.1-0.2,0.3-0.4,0.4-0.6c-0.4-0.4-0.8-0.7-1.2-0.8C185.5,17.5,185.4,17.7,185.2,17.9z"/>
	<path class="st0" d="M112.3,11.3c-0.1,0.2-0.3,0.4-0.4,0.6c0.4,0.2,0.8,0.5,1.2,0.8c0.1-0.2,0.3-0.4,0.4-0.6
		c0.1-0.2,0.3-0.4,0.4-0.6c-0.4-0.4-0.8-0.7-1.2-0.8C112.6,10.9,112.5,11.1,112.3,11.3z"/>
	<path class="st0" d="M133.8,7.7c-0.1,0.2-0.3,0.4-0.4,0.6c0.4,0.2,0.8,0.5,1.2,0.8c0.1-0.2,0.3-0.4,0.4-0.6s0.3-0.4,0.4-0.6
		c-0.4-0.4-0.8-0.7-1.2-0.8C134.1,7.4,133.9,7.6,133.8,7.7z"/>
	<path class="st0" d="M84,10.5c-0.8-0.4-1.3-0.6-2-0.6c-0.5,0-0.9,0.2-1.2,0.6c-0.3,0.4-0.5,1.1-0.6,2.1l0.7,0.1
		c0.1-0.6,0.2-1.1,0.4-1.3c0.1-0.2,0.3-0.3,0.6-0.3c0.5,0,0.9,0.2,1.5,0.4c0.4,0.2,0.8,0.3,1.1,0.4c0.6,0.2,1.2,0.4,1.9,0.5
		c-1,0.5-1.8,0.9-2.6,1.2c-0.8,0.3-1.5,0.5-2.2,0.7c-1.2,0.3-2.9,0.2-4.1,0.2c-0.5,0-0.8-0.1-1.1-0.3c-0.3-0.2-0.5-0.5-0.7-0.9
		l-0.9-1.5l-0.9,1.1c0.8,1.3,1.4,2.3,1.6,3.7c-0.2,0.5-0.4,0.8-0.8,1.1c-0.8,0.6-1.9,0.8-2.9,0.8l-0.3,0.8c1.1,0.4,2.3,0.5,3.2-0.2
		c0.5-0.4,0.8-0.9,1-1.5c0.2-0.6,0.3-1.4,0.2-2.2c0.2,0.2,0.4,0.3,0.6,0.4c0.2,0.1,0.5,0.1,0.8,0.1c0.5,0,2.1,0,2.5,0
		c0.7,0,1.5-0.1,2.2-0.3c1.7-0.5,3.4-1.9,5.2-2.3l0.5-1.6c-0.4,0-0.8,0-1.2-0.1C85.7,11.3,85,11,84,10.5z"/>
	<path class="st0" d="M105.7,11.1c-0.3-0.3-0.8-0.5-1.3-0.5c-0.4,0-0.7,0.1-1,0.3c-0.3,0.2-0.5,0.4-0.7,0.7c-0.2,0.3-0.4,0.6-0.5,1
		c-0.2,0.3-0.3,0.7-0.5,1c-0.2,0.3-0.4,0.6-0.7,0.8c-0.3,0.2-0.6,0.3-1,0.3h0c-0.3,0-0.7,0.1-1,0.3c-0.3,0.2-0.7,0.6-1,1.1
		c-0.4,0.5-0.8,1.2-1.4,2c-0.5-0.4-1-0.8-1.3-1.2c-0.3-0.4-0.5-0.7-0.6-1c1.2-0.1,2-0.4,2.7-0.9c0.6-0.5,0.9-1.3,0.9-2.4
		c0-0.6-0.1-1.1-0.4-1.5c-0.3-0.4-0.8-0.8-1.5-1.2c-0.8,0.4-1.4,1-1.9,1.8c-0.4,0.8-0.7,1.8-0.7,3H92h0c-0.5,0-0.9-0.1-1.2-0.2
		c-0.3-0.1-0.6-0.5-0.6-0.8V6.5L89,7.3c0.4,1.7,0.3,4.2,0.3,6.3c0,0.8,0.2,1.3,0.7,1.7c0.4,0.4,1.1,0.6,2,0.6h0c0.2,0,1.2,0,1.4,0
		c0.2,0,0.3,0,0.5,0c0.4,1.7,1.6,3.1,3.3,4l0.6-1.1c-0.1-0.1-0.2-0.1-0.4-0.2c-0.1-0.1-0.2-0.1-0.3-0.2c0.4-0.7,0.8-1.2,1-1.6
		c0.3-0.4,0.5-0.6,0.7-0.8c0.2-0.1,0.4-0.2,0.7-0.2h0.3l0,0c0.5,0,0.9-0.1,1.2-0.2c0.3-0.1,0.5-0.3,0.7-0.6c0.2-0.2,0.3-0.5,0.4-0.8
		l-0.2,0.8c0.3,0.3,0.7,0.5,1.1,0.6c0.4,0.1,0.8,0.2,1.2,0.2c0.4,0,0.8-0.1,1.2-0.2c0.4-0.1,0.7-0.3,1-0.6c0-0.2,0-0.3,0-0.5
		c0-0.1,0-0.3,0-0.4c0-0.6-0.1-1.2-0.2-1.8C106.3,11.9,106,11.4,105.7,11.1z M94.6,13.1c0.1-0.5,0.3-0.9,0.6-1.3
		c0.2-0.4,0.5-0.6,0.8-0.7c0.3,0.1,0.5,0.3,0.7,0.5c0.2,0.2,0.4,0.4,0.5,0.7c0.1,0.3,0.2,0.5,0.2,0.8c0,0.5-0.2,0.9-0.7,1.2
		c-0.5,0.3-1.1,0.4-1.9,0.4h-0.4C94.4,14.1,94.5,13.6,94.6,13.1z M105.3,14.6c-0.2,0-0.5,0.1-0.7,0.1c-0.4,0-0.8-0.1-1.2-0.2
		c-0.4-0.1-0.7-0.3-0.9-0.5c0.1-0.3,0.3-0.7,0.4-1c0.2-0.4,0.4-0.6,0.6-0.9c0.2-0.2,0.5-0.4,0.9-0.4c0.3,0,0.5,0.1,0.7,0.3
		c0.2,0.2,0.4,0.4,0.5,0.7c0.1,0.3,0.2,0.6,0.3,0.9s0.1,0.6,0.1,0.9C105.7,14.4,105.5,14.5,105.3,14.6z"/>
	<path class="st0" d="M116,11.4l-0.9,1.1c0.4,0.7,0.7,1.4,0.9,2c0.2,0.6,0.4,1.2,0.5,1.9c-0.2,0.3-0.4,0.6-0.7,0.8
		c-0.3,0.2-0.7,0.4-1.2,0.5c-0.4,0.1-0.9,0.2-1.4,0.2c-0.4,0-0.7,0-1.1-0.1c-0.4-0.1-0.7-0.2-1-0.3c-0.3-0.1-0.6-0.4-0.8-0.6
		c-0.2-0.3-0.3-0.6-0.3-1c0-0.5,0.1-0.9,0.2-1.4c0.2-0.5,0.3-1,0.5-1.4l-0.8-0.4c-0.2,0.5-0.4,1-0.5,1.5c-0.1,0.5-0.2,1.1-0.2,1.8
		c0,1.1,0.3,1.9,1,2.4c0.7,0.5,1.6,0.8,2.7,0.8c0.8,0,1.6-0.1,2.2-0.4c0.6-0.3,1.1-0.7,1.5-1.2c0.3-0.5,0.5-1.2,0.5-1.9
		c0-0.8-0.1-1.5-0.3-2.1C116.6,12.8,116.4,12.1,116,11.4z"/>
	<path class="st0" d="M127.8,17.8c-0.1-0.1-0.5-0.1-1-0.1c-0.5,0-1.5,0-3,0.1c-0.1,0.2-0.1,0.3-0.2,0.5c-0.1,0.2-0.1,0.3-0.2,0.5
		c0.1,0.1,0.2,0.2,0.3,0.2c1.3-0.1,2.4-0.1,3.3-0.1h0.8c0.1-0.2,0.1-0.5,0.1-0.7C128,18.1,128,17.9,127.8,17.8z"/>
	<path class="st0" d="M149.2,17.8c-0.1-0.1-0.5-0.1-1-0.1s-1.5,0-3,0.1c-0.1,0.2-0.1,0.3-0.2,0.5c-0.1,0.2-0.1,0.3-0.2,0.5
		c0.1,0.1,0.2,0.2,0.3,0.2c1.3-0.1,2.4-0.1,3.3-0.1h0.8c0.1-0.2,0.1-0.5,0.1-0.7C149.4,18.1,149.3,17.9,149.2,17.8z"/>
	<path class="st0" d="M135.6,10.1l-1,1c0.5,1.1,0.9,2.2,1,3.2c-0.2,0.1-0.5,0.2-0.9,0.2c-1,0.1-2.1,0.4-2.8-0.3
		c-0.3-0.3-0.4-0.6-0.4-1.1c0-0.4,0-0.8,0.1-1.3l-0.8-0.1c-0.1,0.6-0.2,1.1-0.3,1.5c-0.1,0.4-0.2,0.7-0.4,0.9
		c-0.2,0.2-0.4,0.3-0.7,0.4c-0.3,0.1-0.6,0.1-1,0.1l0,0v0h-7h0c-0.5,0-0.9-0.1-1.2-0.2c-0.3-0.1-0.6-0.4-0.6-0.7V6.5l-1.2,0.8
		c0.4,1.7,0.3,4.2,0.3,6.3c0,0.8,0.2,1.3,0.7,1.7c0.4,0.4,1.1,0.6,2,0.6h0h7v0l0,0c0.7,0,1.2-0.2,1.6-0.5c0.4-0.3,0.7-0.8,0.9-1.4
		c0.2,0.6,0.4,1.1,0.8,1.4c0.8,0.6,1.8,0.5,2.9,0.4c0.3-0.1,0.7-0.1,1-0.3c0.3-0.3,0.5-0.6,0.6-0.9c0.3-0.7,0.2-1.4,0.1-2.1
		C136.1,11.7,135.9,10.7,135.6,10.1z"/>
	<path class="st0" d="M139.4,12.3c0-1.1-0.1-2.4-0.2-3.6c-0.1-0.8-0.3-1.6-0.4-2.2l-1,0.8c0.3,1,0.4,2.1,0.5,3.2
		c0.1,1.3,0.1,2.7,0,3.9c-0.1,0.5-0.2,0.9-0.4,1.3l0.5,0.3c0.3-0.3,0.6-0.7,0.7-1.3C139.4,14.1,139.4,13.3,139.4,12.3z"/>
	<path class="st0" d="M149.1,10.1l-1,1c0.5,1.1,0.9,2.2,1,3.2c-1,0.5-3,0.2-4.2,0.3h0c-0.5,0-0.8-0.1-1.1-0.3
		c-0.5-0.4-1.2-1.8-1.6-2.4l-0.9,1.1c0.8,1.3,1.4,2.3,1.6,3.7c-0.5,1.5-2.2,1.9-3.6,1.9l-0.3,0.8c0.5,0.2,1.1,0.3,1.6,0.3
		c1.3,0,2.2-0.8,2.7-2c0.2-0.6,0.3-1.4,0.2-2.2c0.2,0.2,0.4,0.3,0.6,0.4c0.6,0.2,2.1,0.1,2.8,0.1c0.9,0,1.5-0.1,2.3-0.3
		c0.3-0.3,0.5-0.6,0.6-0.9c0.3-0.7,0.2-1.4,0.1-2.1C149.6,11.7,149.4,10.7,149.1,10.1z"/>
	<path class="st0" d="M152.4,6.5l-1,0.8c0.3,1,0.4,2.1,0.5,3.2c0.1,1.8,0.3,3.6-0.4,5.1l0.5,0.3c0.9-0.8,0.9-2.2,0.9-3.6
		c0-0.5,0-1,0-1.7C152.9,9.3,152.7,7.8,152.4,6.5z"/>
	<path class="st0" d="M176.3,11.1c-0.3-0.3-0.8-0.5-1.3-0.5c-0.4,0-0.7,0.1-1,0.3c-0.6,0.4-0.9,1.1-1.2,1.7c-0.2,0.3-0.3,0.7-0.5,1
		c-0.2,0.3-0.4,0.6-0.7,0.8c-0.6,0.4-2,0.3-2.6,0.2c-0.4,0-0.7-0.1-0.9-0.2c0.8-0.6,1.5-1.3,1.5-2.3c0-0.7-0.2-1.2-0.7-1.6
		c-1.5-1.3-4.7-0.5-5,1.6c1,0.6,2.1,1.5,2.8,2.4c-1.1,0.3-3.2,0.2-4.7,0.2h0c-0.4,0-0.8-0.1-1.1-0.2c-0.3-0.1-0.5-0.3-0.6-0.5
		L160,8.3l-1.2,0.6l0.2,1.1c-1.8,0.6-3.4,1.6-3.4,3.3c0,0.5,0.2,0.9,0.6,1.2c0.9,0.7,2.5,0.5,3.6-0.1c0.2,0.5,0.4,0.8,0.8,1
		c0.3,0.2,0.8,0.3,1.5,0.3h0l0,0c1.4,0,3.2,0,4.4-0.4c0.3-0.1,0.7-0.3,1-0.4c0.3,0.2,0.8,0.4,1.3,0.6c0.7,0.2,2.4,0.4,3.1,0
		c0.3-0.1,0.5-0.3,0.7-0.6c0.2-0.2,0.3-0.5,0.4-0.8l-0.1,0.9c0.5,0.4,1.4,0.8,2.2,0.8c0.8,0,1.6-0.3,2.2-0.8
		c0.1-0.9,0.1-1.9-0.2-2.7C176.9,11.9,176.7,11.4,176.3,11.1z M158.8,13.9c-0.3,0-0.6,0.1-0.9,0.1c-0.3,0-0.5,0-0.8-0.1
		c-0.2-0.1-0.5-0.1-0.6-0.3s-0.2-0.3-0.2-0.5c0-0.4,0.1-0.7,0.4-0.9c0.3-0.3,0.6-0.5,1.1-0.7c0.4-0.2,0.9-0.4,1.4-0.5
		c0.1,0.6,0.2,1.1,0.3,1.5s0.1,0.8,0.2,1.3C159.3,13.8,159.1,13.9,158.8,13.9z M166.1,12.5c-0.5-0.4-0.9-0.8-1.3-1
		c0.6-0.5,1.4-0.7,2.3-0.7c0.3,0,0.6,0.1,0.9,0.2c0.3,0.1,0.5,0.3,0.7,0.4c0.2,0.2,0.3,0.4,0.3,0.6c0,0.2-0.1,0.5-0.4,0.8
		c-0.3,0.3-0.6,0.6-1.1,0.9C167,13.4,166.6,13,166.1,12.5z M175.9,14.6c-0.2,0-0.5,0.1-0.7,0.1c-0.4,0-0.8-0.1-1.2-0.2
		c-0.4-0.1-0.7-0.3-0.9-0.5c0.1-0.3,0.3-0.7,0.4-1c0.2-0.4,0.4-0.6,0.6-0.9c0.2-0.2,0.5-0.4,0.9-0.4c0.3,0,0.5,0.1,0.7,0.3
		c0.2,0.2,0.4,0.4,0.5,0.7c0.1,0.3,0.2,0.6,0.3,0.9s0.1,0.6,0.1,0.9C176.4,14.4,176.2,14.5,175.9,14.6z"/>
	<path class="st0" d="M190.1,11.5c-1.2-0.2-2.8-1-3.9-1.4c-0.3-0.1-0.6-0.1-0.8-0.1c-0.5,0-0.9,0.2-1.2,0.6s-0.5,1.1-0.6,2.1
		l0.7,0.1c0.1-0.6,0.2-1.1,0.4-1.3c0.1-0.2,0.3-0.3,0.6-0.3c0.1,0,0.3,0,0.6,0.1c0.8,0.2,2.3,0.9,3,1c0.3,0.1,0.6,0.2,0.9,0.2
		c-1.7,0.9-3.1,1.6-4.7,1.9c-1.2,0.3-2.4,0.2-3.6,0.2h0c-0.5,0-0.9-0.1-1.2-0.2c-0.3-0.1-0.6-0.4-0.6-0.9v-7l-1.2,0.8
		c0.4,1.7,0.3,4.2,0.3,6.3c0,0.8,0.2,1.3,0.7,1.7c0.4,0.4,1.1,0.6,2,0.6h0c1.4,0,2.8,0.1,4.2-0.3c0.7-0.2,1.5-0.5,2.3-1
		c0.9-0.6,1.9-1.1,2.9-1.3l0.5-1.6C190.9,11.6,190.5,11.5,190.1,11.5z"/>
</g>
<g>
	<polygon class="st1" points="87.9,31.1 84.6,31.1 75.1,40.6 84.5,50.7 87.6,50.7 78.3,40.6 	"/>
	<rect x="72.3" y="27.4" class="st1" width="2.2" height="23.2"/>
	<path class="st1" d="M98,31.1c-2.7,0-5.1,1-7.1,2.9C89,36,88,38.3,88,41.1c0,2.7,1,5.1,2.9,7c1.9,1.9,4.3,2.9,7.1,2.9
		c2.7,0,5.1-1,7-2.9c1.9-1.9,2.9-4.3,2.9-7c0-2.7-1-5.1-2.9-7C103.1,32.1,100.7,31.1,98,31.1z M98,48.8c-2.1,0-4-0.8-5.5-2.3
		c-1.5-1.5-2.3-3.3-2.3-5.5c0-2.1,0.8-4,2.3-5.5c1.5-1.5,3.3-2.3,5.5-2.3c2.1,0,4,0.8,5.5,2.3c1.5,1.5,2.3,3.3,2.3,5.5
		c0,2.1-0.8,4-2.3,5.5S100.1,48.8,98,48.8z"/>
	<path class="st1" d="M120.2,31.1c-2.7,0-5.1,1-7.1,2.9c-1.9,1.9-2.9,4.3-2.9,7c0,2.7,1,5.1,2.9,7c1.9,1.9,4.3,2.9,7.1,2.9
		c2.7,0,5.1-1,7-2.9c1.9-1.9,2.9-4.3,2.9-7c0-2.7-1-5.1-2.9-7C125.3,32.1,122.9,31.1,120.2,31.1z M120.2,48.8c-2.1,0-4-0.8-5.5-2.3
		c-1.5-1.5-2.3-3.3-2.3-5.5c0-2.1,0.8-4,2.3-5.5c1.5-1.5,3.3-2.3,5.5-2.3c2.1,0,4,0.8,5.5,2.3c1.5,1.5,2.3,3.3,2.3,5.5
		c0,2.1-0.8,4-2.3,5.5S122.3,48.8,120.2,48.8z"/>
	<path class="st1" d="M162.8,31.7c-2.4,0-4.4,0.8-6.1,2.5c-0.1,0.1-0.2,0.2-0.3,0.3v-7h-2.2v23.1h2.2v0h0V40c0-1.6,0.6-3,1.9-4.2
		c1.3-1.3,2.7-1.9,4.5-1.9c1.8,0,3.2,0.6,4.5,1.9c1.3,1.3,1.9,2.7,1.9,4.5v10.3h2.2V40.3c0-2.4-0.8-4.4-2.5-6.1
		C167.2,32.5,165.1,31.7,162.8,31.7z"/>
	<path class="st1" d="M183.6,31.1c-2.7,0-5.1,1-7.1,2.9c-1.9,1.9-2.9,4.3-2.9,7c0,2.7,1,5.1,2.9,7.1c1.9,1.9,4.3,2.9,7.1,2.9
		c1.8,0,3.5-0.4,5-1.3c1.1-0.6,2-1.4,2.7-2.4v3.2h2.2v-9.5c0-2.7-1-5.1-2.9-7C188.7,32.1,186.3,31.1,183.6,31.1z M183.6,33.3
		c2.1,0,4,0.8,5.5,2.3c1.5,1.5,2.3,3.3,2.3,5.5c0,2.1-0.8,4-2.3,5.5s-3.3,2.3-5.5,2.3c-2.1,0-4-0.8-5.5-2.3
		c-1.5-1.5-2.3-3.3-2.3-5.5c0-2.1,0.8-4,2.3-5.5C179.6,34.1,181.5,33.3,183.6,33.3z"/>
	<path class="st1" d="M212.7,34c-1.9-1.9-4.3-2.9-7-2.9c-2.7,0-5.1,1-7.1,2.9c-1.9,1.9-2.9,4.3-2.9,7c0,2.7,1,5.1,2.9,7.1
		c1.9,1.9,4.3,2.9,7.1,2.9c1.8,0,3.5-0.4,5-1.3c1.1-0.6,2-1.4,2.7-2.4v3.2h2.2v-9.5C215.7,38.3,214.7,36,212.7,34z M205.7,33.3
		c2.1,0,4,0.8,5.5,2.3c1.5,1.5,2.3,3.3,2.3,5.5c0,2.1-0.8,4-2.3,5.5c-1.5,1.5-3.3,2.3-5.5,2.3c-2.1,0-4-0.8-5.5-2.3
		c-1.5-1.5-2.3-3.3-2.3-5.5c0-2.1,0.8-4,2.3-5.5C201.7,34.1,203.6,33.3,205.7,33.3z"/>
	<path class="st1" d="M149.3,44.4c-0.5,1.1-1.2,2-2.2,2.7c-1.4,1.1-3,1.7-4.8,1.7c-2.1,0-4-0.8-5.5-2.3c-1.5-1.5-2.3-3.3-2.3-5.5
		c0-2.1,0.8-4,2.3-5.5c1.5-1.5,3.3-2.3,5.5-2.3c1.8,0,3.4,0.6,4.8,1.7c1,0.8,1.7,1.7,2.2,2.7h2.4c-0.6-1.7-1.6-3.2-3.1-4.4
		c-1.8-1.5-4-2.3-6.3-2.3c-2.7,0-5.1,1-7.1,2.9c-1.9,1.9-2.9,4.3-2.9,7c0,2.7,1,5.1,2.9,7c1.9,1.9,4.3,2.9,7.1,2.9
		c2.4,0,4.5-0.8,6.3-2.3c1.4-1.2,2.5-2.7,3.1-4.4H149.3z"/>
</g>
<g>
	<path class="st0" d="M26.8,1.4C11.5,3.7,2.7,14.6,1.2,26.4c-1.8,13.8,6.8,29.8,24.5,32.3c10,1.4,18.7-1.6,24.8-7.2l-1.1-1.6
		c-0.3,0.3-0.6,0.6-1,0.8c-10.2,8.1-23,7.1-31.4,0.5C7.5,43.7,4.2,29.2,11.6,18c0,0,0,0,0,0c0,0,0,0,0,0C5.8,31.2,10.5,47,25.2,52.6
		c8.3,3.1,16.9,1.2,23.1-4.2l-1.6-2.2c-13.2,10-36.5,0.8-35-19.4C12.8,13.9,22,5,36,5.7C48.6,6.2,57,18.3,55.1,31
		c-0.9,6.1-3.4,10.6-6.6,13.8c0.7,0.5,1.2,1.3,1.7,2c3.1-3.2,5.5-7.4,6.6-12.2c0.9-3.7,1.1-7.5,0.6-11.2c2.2,8.6-0.2,18.2-6.2,24.8
		c0.4,0.4,0.9,0.9,1.3,1.3c4.1-4.7,6.8-10.7,7.3-17.2C61.5,13.5,45.4-1.5,26.8,1.4z M9,45.9C3.2,39,2.1,29.7,5.2,21.4
		C7.7,14.5,12.9,8.7,19.8,6C5.7,14.1,1.5,31.7,9,45.9z"/>
	<g>
		<path class="st0" d="M37.3,12c0.6,5.4,3.4,10.1,7.1,14c0.7,0.7,3.3,0.2,2.7-0.3c-3.8-3.3-5.8-8.1-6.4-13.1
			C40.6,11.5,37.3,11.5,37.3,12L37.3,12z"/>
		<path class="st1" d="M36.4,26.7C35,25.3,35,23,36.5,21.6l3.4-3.2h-5.2c-0.4-1.3-1.8-7.3-10-6.4c1.1,0.4,2,0.8,2.6,1.3
			C16.5,14.4,13,32.1,22.1,41.2c1.1,1.1,2.4,2.1,3.7,2.8c1.3,0.7,2,2.1,2,3.5v1.9c0.8,0.2,1.6,0.4,2.5,0.5v-4.3
			c4.8,1,10-0.2,14.3-3.6l8.3,8.6l5.4-2.3L36.4,26.7z M28,18.3c0.1-0.7,0.7-1.2,1.3-1.3c1.2-0.2,2.2,0.8,2,2
			c-0.1,0.7-0.7,1.2-1.3,1.3C28.8,20.5,27.8,19.5,28,18.3z M21.2,27.5c1.3,9.8,11.1,13.5,18.7,8.7l1.9,2.1
			C32.8,44.8,19.4,38.8,21.2,27.5z"/>
	</g>
</g>
</svg>
