<?xml version="1.0" standalone="no"?>
<!DOCTYPE svg PUBLIC "-//W3C//DTD SVG 20010904//EN"
 "http://www.w3.org/TR/2001/REC-SVG-20010904/DTD/svg10.dtd">
<svg version="1.0" xmlns="http://www.w3.org/2000/svg"
 width="200.000000pt" height="200.000000pt" viewBox="0 0 200.000000 200.000000"
 preserveAspectRatio="xMidYMid meet">
<metadata>
Created by potrace 1.14, written by Peter Selinger 2001-2017
</metadata>
<g transform="translate(0.000000,200.000000) scale(0.100000,-0.100000)"
fill="#000000" stroke="none">
<path d="M754 1880 c-344 -79 -603 -352 -686 -724 -26 -117 -21 -293 12 -406
111 -390 481 -660 895 -654 279 4 520 95 699 263 194 185 286 413 273 681 -7
141 -32 233 -95 355 -78 149 -255 312 -417 385 -99 44 -111 49 -175 69 -160
52 -361 65 -506 31z m381 -94 c290 -77 489 -265 576 -546 30 -96 33 -279 6
-380 -17 -64 -84 -217 -91 -209 -2 2 6 36 19 76 109 332 -8 683 -291 872 -145
97 -297 142 -464 137 -91 -3 -225 -29 -245 -47 -5 -5 -16 -9 -25 -9 -27 0
-165 -86 -224 -141 -164 -150 -251 -336 -272 -580 -8 -97 -15 -85 -13 21 7
338 192 622 490 754 71 31 152 56 209 63 25 3 47 7 49 9 10 9 224 -6 276 -20z
m-45 -196 c352 -100 562 -418 500 -759 -71 -393 -405 -629 -819 -579 -332 40
-571 316 -574 663 0 117 47 282 115 395 86 145 250 261 413 295 97 20 267 13
365 -15z m689 -243 c157 -275 96 -652 -146 -903 -69 -71 -107 -100 -191 -148
-84 -47 -89 -45 -16 5 202 140 347 373 379 609 7 54 7 215 0 250 -3 14 -8 41
-11 60 -8 50 -45 162 -58 179 -8 11 -8 13 1 8 6 -4 25 -31 42 -60z"/>
</g>
</svg>
