<?xml version="1.0" encoding="UTF-8"?>
<svg xmlns="http://www.w3.org/2000/svg" xmlns:xlink="http://www.w3.org/1999/xlink" viewBox="0 0 680 180">
  <defs>
    <style>
      .cls-1 {
        fill: #72b3e3;
        opacity: .61;
      }

      .cls-1, .cls-2, .cls-3, .cls-4, .cls-5, .cls-6, .cls-7 {
        stroke-width: 0px;
      }

      .cls-2 {
        fill: #b5d1db;
      }

      .cls-8 {
        filter: url(#drop-shadow-1);
      }

      .cls-3 {
        fill: #d6e2ea;
      }

      .cls-4 {
        fill: url(#Degradado_sin_nombre_4);
      }

      .cls-5 {
        fill: #82bce7;
      }

      .cls-6 {
        fill: #7ab8e5;
      }

      .cls-7 {
        fill: #fff;
      }
    </style>
    <linearGradient id="Degradado_sin_nombre_4" data-name="Degradado sin nombre 4" x1="107.76" y1="586.45" x2="572.15" y2="-217.89" gradientUnits="userSpaceOnUse">
      <stop offset="0" stop-color="#5190c5"/>
      <stop offset="1" stop-color="#72b3e3"/>
    </linearGradient>
    <filter id="drop-shadow-1" filterUnits="userSpaceOnUse">
      <feOffset dx="-1" dy="1"/>
      <feGaussianBlur result="blur" stdDeviation="0"/>
      <feFlood flood-color="#0c70ad" flood-opacity=".82"/>
      <feComposite in2="blur" operator="in"/>
      <feComposite in="SourceGraphic"/>
    </filter>
  </defs>
  <g id="BACKGROUND">
    <g>
      <rect class="cls-4" x="0" y="-155.68" width="679.91" height="679.91"/>
      <g>
        <path class="cls-1" d="M680,160.54V23.46c-25.28,6.68-45.7,25.33-54.82,49.52-7.36-13.23-21.48-22.19-37.7-22.19-12.45,0-23.66,5.28-31.53,13.73-11.75-30-40.93-51.25-75.09-51.25-43.44,0-78.83,34.35-80.56,77.36-2.58-.59-5.27-.91-8.03-.91-12.51,0-23.52,6.37-29.99,16.03-6.99-23.24-28.54-40.17-54.06-40.17-18.4,0-34.73,8.8-45.04,22.42-6.56-27.92-31.61-48.71-61.52-48.71-31.73,0-57.99,23.37-62.52,53.84-6.57-8.9-17.13-14.67-29.03-14.67-10,0-19.05,4.07-25.58,10.64-4.09-20.68-22.33-36.28-44.21-36.28-7.66,0-14.87,1.92-21.19,5.29.25-1.73.39-3.49.39-5.29,0-13.94-7.92-26.03-19.5-32.04v139.77h680Z"/>
        <path class="cls-6" d="M680,255.3v-109.06c-7.26-3.29-15.32-5.14-23.81-5.14-14.71,0-28.12,5.5-38.32,14.55-8.87-35.25-40.78-61.35-78.78-61.35-18.12,0-34.85,5.94-48.36,15.96.09-1.28.14-2.58.14-3.88,0-31.9-25.86-57.76-57.76-57.76s-57.76,25.86-57.76,57.76c0,6.31,1.03,12.38,2.9,18.07-9.87-7.88-22.38-12.6-35.99-12.6-21.44,0-40.15,11.7-50.11,29.05-6.95-6.41-16.24-10.32-26.44-10.32-9.29,0-17.82,3.25-24.53,8.68-10.17-16.39-28.32-27.32-49.04-27.32-27.6,0-50.66,19.39-56.33,45.29-14.9-18.2-37.54-29.83-62.9-29.83-32.02,0-59.7,18.53-72.93,45.44v82.47h680Z"/>
        <path class="cls-5" d="M680,325.99v-155.76c-28.55,13.78-49.12,41.47-52.88,74.29-11.3-14.22-28.74-23.36-48.32-23.36s-37.41,9.34-48.7,23.84c-10.72-22.6-33.74-38.23-60.41-38.23-.05,0-.09,0-.14,0,.08-1.32.14-2.64.14-3.98,0-34.08-27.63-61.7-61.7-61.7s-60.97,26.92-61.67,60.39c-17.31-19.33-42.44-31.5-70.42-31.5-36.69,0-68.47,20.92-84.13,51.46-8.26-7.65-19.3-12.33-31.44-12.33-10.71,0-20.55,3.65-28.39,9.75-10.01-20.57-31.1-34.75-55.51-34.75-12.08,0-23.34,3.48-32.85,9.48-3.57-23.89-20.84-43.29-43.56-49.98v182.38h680Z"/>
      </g>
    </g>
  </g>
  <g id="OBJECTS">
    <g>
      <path class="cls-2" d="M575.86,97.87l7.97,24.39c.57,1.73,2.7,2.35,4.11,1.19l23.82-19.66s-25.31-9.87-25.31-9.33-10.59,3.41-10.59,3.41Z"/>
      <path class="cls-7" d="M638.7,50.99c-15.55,6.15-65.76,26.73-84.76,34.52-2.51,1.03-2.36,4.63.23,5.45l21.7,6.91,7.95,24.32c.32.98,1.13,1.61,2.03,1.78.73.14,1.81-19.69,1.81-19.69,0,0,22.81,16.91,33.63,24.9,2.67,1.97,6.47.49,7.1-2.76,3.22-16.61,11.28-58.14,14.04-72.34.41-2.13-1.69-3.89-3.71-3.09Z"/>
      <path class="cls-3" d="M585.84,123.97c.73.14,1.81-19.69,1.81-19.69l37.47-35.2c.25-.24-.05-.64-.35-.46l-48.91,29.25,7.95,24.32c.32.98,1.13,1.61,2.03,1.78Z"/>
    </g>
    <g class="cls-8">
      <path class="cls-7" d="M40.97,73.14c-1.32-1.33-1.99-3.16-2.02-5.48l-.04-16.8,4.28-1.2v16.6c0,1.15.29,2.01.88,2.58.59.57,1.41.86,2.48.86h1.12c.45,0,.84.26,1.16.78s.48,1.17.48,1.94-.16,1.42-.48,1.94c-.32.52-.71.78-1.16.78h-1.4c-2.21,0-3.98-.67-5.3-2Z"/>
      <path class="cls-7" d="M46.47,74.36c-.32-.52-.48-1.17-.48-1.94s.16-1.42.48-1.94c.32-.52.71-.78,1.16-.78h10.24c.45,0,.84.26,1.16.78s.48,1.17.48,1.94-.16,1.42-.48,1.94c-.32.52-.71.78-1.16.78h-10.24c-.45,0-.84-.26-1.16-.78Z"/>
      <path class="cls-7" d="M56.67,74.34c-.32-.53-.48-1.17-.48-1.92s.16-1.39.48-1.92c.32-.53.71-.8,1.16-.8h14.68l-.84-6.16c-.19-1.39-.67-2.45-1.44-3.2-.77-.75-1.77-1.12-3-1.12-.35,0-.72.04-1.12.12l-5.8.96.48-4.84,4.92-.84c.59-.08,1.16-.12,1.72-.12,2.27,0,4.16.68,5.68,2.04,1.52,1.36,2.45,3.23,2.8,5.6l1.04,7.56h3.64l-1.48,5.44h-21.28c-.45,0-.84-.27-1.16-.8ZM75.39,78.94v4.04h-10.24v-4.04h10.24ZM72.55,87.57h-4.56l.08-4.16h4.4l.08,4.16Z"/>
      <path class="cls-7" d="M105.18,70.5c.32.53.48,1.17.48,1.92s-.16,1.39-.48,1.92-.71.8-1.16.8h-4.04c-.13,1.33-.57,2.52-1.32,3.56-.75,1.04-1.75,1.76-3,2.16l-7.08,2.32-1.56-4.36,7-2.28,2.16-.72-.12-1.44-1.56.28c-.56.08-1.12.12-1.68.12h-4.08c-1.25,0-2.32-.4-3.2-1.2s-1.41-1.84-1.6-3.12l-.56-4.08c-.11-.91-.16-1.56-.16-1.96,0-2.27.62-4.15,1.86-5.66,1.24-1.51,3.02-2.51,5.34-3.02l6.28-1.32,1.92,1.56c.93.8,1.4,1.83,1.4,3.08v10.64h4c.45,0,.84.27,1.16.8ZM95.82,69.86v-10.56l-5.28,1.12c-1.07.21-1.85.61-2.36,1.18-.51.57-.76,1.35-.76,2.34,0,.21.03.56.08,1.04l.68,4.88h7.64Z"/>
      <path class="cls-7" d="M102.82,74.36c-.32-.52-.48-1.17-.48-1.94s.16-1.42.48-1.94c.32-.52.71-.78,1.16-.78h10.24c.45,0,.84.26,1.16.78s.48,1.17.48,1.94-.16,1.42-.48,1.94c-.32.52-.71.78-1.16.78h-10.24c-.45,0-.84-.26-1.16-.78Z"/>
      <path class="cls-7" d="M113.02,74.34c-.32-.53-.48-1.17-.48-1.92s.16-1.39.48-1.92c.32-.53.71-.8,1.16-.8h12.12c.91,0,1.65-.12,2.24-.36.59-.24,1.05-.61,1.4-1.12l-.44-2.68c-.16-.93-.51-1.65-1.06-2.14-.55-.49-1.27-.74-2.18-.74h-8.56l-2.56-5.56,9.72-9.4,2.08,4.24-6.48,6.08h6.12c1.84,0,3.39.51,4.64,1.52,1.25,1.01,2.03,2.37,2.32,4.08l.36,2.08c.11.75.16,1.31.16,1.68,0,1.49-.35,2.83-1.06,4-.71,1.17-1.72,2.09-3.04,2.76-1.32.67-2.86,1-4.62,1h-11.16c-.45,0-.84-.27-1.16-.8Z"/>
      <path class="cls-7" d="M148.18,71.7c.16-.16.51-.43,1.04-.8-.43-.85-.72-1.51-.88-1.96-.37-.85-.56-1.77-.56-2.76,0-1.57.47-3.17,1.4-4.8l2.76-4.72c.69-1.17,1.57-1.96,2.64-2.36l1.32-.48,3.84,1.88c1.65.83,2.95,2,3.88,3.52.93,1.52,1.4,3.2,1.4,5.04v7.16l-1.56,2c-.43.56-.95.99-1.58,1.28-.63.29-1.29.44-1.98.44h-9v6.76l-4.24,1.2v-7.52c0-1.57.51-2.87,1.52-3.88ZM160.41,69.7h.68v-5.56c0-.88-.22-1.67-.66-2.38-.44-.71-1.05-1.25-1.82-1.62l-3.24-1.6-2.96,5.12c-.45.77-.68,1.48-.68,2.12s.2,1.32.6,2.04l1.08,1.88h7Z"/>
      <path class="cls-7" d="M169.53,50.86l4.28-1.2v24.96l-4.28,1.2v-24.96Z"/>
      <path class="cls-7" d="M179.17,76.06l1.8-.76v-17.08l4.28-.84v9.24c0,.96.28,1.71.84,2.26.56.55,1.25.82,2.08.82h2.12c.45,0,.85.27,1.18.8.33.53.5,1.17.5,1.92s-.17,1.39-.5,1.92c-.33.53-.73.8-1.18.8h-1.92c-1.63,0-2.89-.51-3.8-1.52v1.48c-.08,2.8-1.29,4.69-3.64,5.68l-5.48,2.2-2.12-4.6,5.84-2.32Z"/>
      <path class="cls-7" d="M189.09,74.34c-.32-.53-.48-1.17-.48-1.92s.16-1.39.48-1.92c.32-.53.71-.8,1.16-.8h16l-.04-.36-.64-3.8c-.16-.93-.51-1.65-1.06-2.14-.55-.49-1.27-.74-2.18-.74h-8.56l-2.56-5.56,9.72-9.4,2.08,4.24-6.48,6.08h6.12c1.84,0,3.39.51,4.64,1.52,1.25,1.01,2.03,2.37,2.32,4.08l.56,3.32c.13.8.49,1.46,1.06,1.98s1.38.78,2.42.78h1.36c.45,0,.84.27,1.16.8.32.53.48,1.17.48,1.92s-.16,1.39-.48,1.92c-.32.53-.71.8-1.16.8h-1c-1.17,0-2.24-.23-3.2-.68-.96-.45-1.76-1.08-2.4-1.88l-.6.84c-.48.61-.97,1.05-1.46,1.32-.49.27-1.14.4-1.94.4h-14.16c-.45,0-.84-.27-1.16-.8ZM189.61,53.7l5.76-5.56,1.36,2.76-5.84,5.6-1.28-2.8Z"/>
      <path class="cls-7" d="M213.77,70.5c.32-.53.71-.8,1.16-.8h2.52c1.87,0,3.21-.49,4.04-1.48l-.16-17.36,4.24-1.2v16.72c0,.96.31,1.75.94,2.38.63.63,1.51.94,2.66.94h1.6c.45,0,.84.26,1.16.78.32.52.48,1.17.48,1.94s-.16,1.42-.48,1.94c-.32.52-.71.78-1.16.78h-1.76c-1.2,0-2.22-.25-3.06-.74-.84-.49-1.47-1.22-1.9-2.18-.7.91-1.59,1.62-2.68,2.14-1.09.52-2.36.78-3.8.78h-2.64c-.45,0-.84-.27-1.16-.8-.32-.53-.48-1.17-.48-1.92s.16-1.39.48-1.92Z"/>
      <path class="cls-7" d="M229.53,74.36c-.32-.52-.48-1.17-.48-1.94s.16-1.42.48-1.94c.32-.52.71-.78,1.16-.78h3.52c1.89,0,3.31-.47,4.24-1.4l-2.36-11.64,4.24-2.04,2.08,10.04c.19,1.01.28,1.84.28,2.48,0,2.43-.77,4.37-2.32,5.82-1.55,1.45-3.64,2.18-6.28,2.18h-3.4c-.45,0-.84-.26-1.16-.78ZM231.61,47.78h10.24v4.08h-10.24v-4.08Z"/>
      <path class="cls-7" d="M253.82,80.38c-1.67-1.63-2.5-3.84-2.5-6.64,0-1.15.13-2.31.4-3.48l1.16-5.28h3.8l-1.16,5.36c-.16.72-.24,1.4-.24,2.04,0,1.6.48,2.83,1.44,3.7s2.31,1.3,4.04,1.3h1.92c1.79,0,3.13-.55,4.04-1.64l-.2-24.88,4.28-1.2v25.2c0,1.36-.31,2.64-.92,3.84s-1.58,2.19-2.9,2.96c-1.32.77-2.99,1.16-5.02,1.16h-1.28c-2.91,0-5.19-.81-6.86-2.44Z"/>
      <path class="cls-7" d="M277.5,73.14c-1.32-1.33-1.99-3.16-2.02-5.48l-.04-16.64,4.28-1.2v16.44c0,1.15.29,2.01.88,2.58.59.57,1.41.86,2.48.86h3.68c1.81,0,3.19-.47,4.12-1.4l-2.36-11.64,4.24-2.04,2.08,10.04c.19.83.28,1.67.28,2.52,0,2.43-.78,4.36-2.34,5.8-1.56,1.44-3.65,2.16-6.26,2.16h-3.72c-2.21,0-3.98-.67-5.3-2ZM285.88,47.74h4.88v4.64h-4.88v-4.64Z"/>
      <path class="cls-7" d="M301.1,73.14c-1.32-1.33-1.99-3.16-2.02-5.48l-.04-16.8,4.28-1.2v16.6c0,1.15.29,2.01.88,2.58.59.57,1.41.86,2.48.86h9.24c2.05,0,3.57-.49,4.56-1.48l-.44-2.68c-.13-.93-.48-1.65-1.04-2.14-.56-.49-1.29-.74-2.2-.74h-8.56l-2.56-5.56,9.72-9.4,2.08,4.24-6.48,6.08h6.12c1.87,0,3.42.51,4.66,1.52,1.24,1.01,2.01,2.37,2.3,4.08l.36,2.08c.11.53.16,1.11.16,1.72,0,1.47-.35,2.79-1.06,3.96-.71,1.17-1.72,2.09-3.04,2.76-1.32.67-2.85,1-4.58,1h-9.52c-2.21,0-3.98-.67-5.3-2Z"/>
      <path class="cls-7" d="M339.51,76.02l1.88-.76v-16.76l4.12-.76v15.76c0,3.68-1.44,6.11-4.32,7.28l-5.44,2.2-2.12-4.56,5.88-2.4Z"/>
      <path class="cls-7" d="M355.59,69.7c1.17,0,2.13-.12,2.88-.36.75-.24,1.37-.61,1.88-1.12l-.84-4.44c-.32-1.6-1.15-2.85-2.48-3.76l-3.8-2.56,1.8-4.44,4.48,2.96c2.43,1.63,3.85,3.83,4.28,6.6l.52,3.24c.08.48.12.96.12,1.44,0,1.39-.33,2.68-.98,3.88-.65,1.2-1.65,2.17-2.98,2.9s-2.95,1.1-4.84,1.1h-6.24l-.52-5.44h6.72Z"/>
      <path class="cls-7" d="M377.43,74.1c-1.41-.69-2.5-1.68-3.26-2.96-.76-1.28-1.14-2.76-1.14-4.44,0-.83.11-1.75.32-2.76l1.2-5.48h3.84l-1.08,5.04c-.13.53-.2,1.12-.2,1.76,0,1.41.45,2.51,1.34,3.28.89.77,2.18,1.16,3.86,1.16h12.08v-11.44l4.32-.84v12.28h5.44c.45,0,.84.26,1.16.78.32.52.48,1.17.48,1.94s-.16,1.42-.48,1.94c-.32.52-.71.78-1.16.78h-21.72c-1.92,0-3.59-.35-5-1.04ZM380.91,52.74h10.24v4.08h-10.24v-4.08Z"/>
      <path class="cls-7" d="M402.9,74.36c-.32-.52-.48-1.17-.48-1.94s.16-1.42.48-1.94c.32-.52.71-.78,1.16-.78h3.52c1.89,0,3.31-.47,4.24-1.4l-2.36-11.64,4.24-2.04,2.08,10.04c.19,1.01.28,1.84.28,2.48,0,2.43-.77,4.37-2.32,5.82-1.55,1.45-3.64,2.18-6.28,2.18h-3.4c-.45,0-.84-.26-1.16-.78ZM403.78,79.62h10.24v4.08h-10.24v-4.08Z"/>
      <path class="cls-7" d="M441.5,70.5c.32.53.48,1.17.48,1.92s-.16,1.39-.48,1.92c-.32.53-.71.8-1.16.8h-4.04c-.13,1.33-.57,2.52-1.32,3.56-.75,1.04-1.75,1.76-3,2.16l-7.08,2.32-1.56-4.36,7-2.28,2.16-.72-.12-1.44-1.56.28c-.56.08-1.12.12-1.68.12h-4.08c-1.25,0-2.32-.4-3.2-1.2s-1.41-1.84-1.6-3.12l-.56-4.08c-.11-.91-.16-1.56-.16-1.96,0-2.27.62-4.15,1.86-5.66,1.24-1.51,3.02-2.51,5.34-3.02l6.28-1.32,1.92,1.56c.93.8,1.4,1.83,1.4,3.08v10.64h4c.45,0,.84.27,1.16.8ZM432.14,69.86v-10.56l-5.28,1.12c-1.07.21-1.85.61-2.36,1.18-.51.57-.76,1.35-.76,2.34,0,.21.03.56.08,1.04l.68,4.88h7.64Z"/>
      <path class="cls-7" d="M439.1,74.34c-.32-.53-.48-1.17-.48-1.92s.16-1.39.48-1.92c.32-.53.71-.8,1.16-.8h2.56c.77,0,1.39-.17,1.84-.5.45-.33.71-.78.76-1.34l-.08-10.04,3.8-.88v4.6l3.68-4.32c1.73-2.05,3.64-3.08,5.72-3.08.72,0,1.55.15,2.48.44l2.08.64c1.15.35,2.07.91,2.78,1.7.71.79,1.15,1.66,1.34,2.62l1.6,8.28c.13.51.43.95.88,1.32.45.37,1.09.56,1.92.56h2.32c.45,0,.85.27,1.18.8.33.53.5,1.17.5,1.92s-.17,1.39-.5,1.92c-.33.53-.73.8-1.18.8h-2.04c-2.51,0-4.31-1-5.4-3-.64.99-1.49,1.73-2.56,2.24-1.07.51-2.29.76-3.68.76h-7.8c-2.05,0-3.65-.8-4.8-2.4-1.07,1.6-2.75,2.4-5.04,2.4h-2.36c-.45,0-.84-.27-1.16-.8ZM463.38,69.3c.64-.27,1.17-.65,1.6-1.16l-1.48-8.16-2.88-.92c-.85-.27-1.55-.4-2.08-.4-.67,0-1.3.17-1.9.52-.6.35-1.22.89-1.86,1.64l-5.24,6.16.24.76c.27,1.31,1.05,1.96,2.36,1.96h8.8c.99,0,1.8-.13,2.44-.4ZM455.54,46.62h4.88v4.64h-4.88v-4.64Z"/>
      <path class="cls-7" d="M472.73,70.5c.32-.53.71-.8,1.16-.8h3.68l-.64-3.6c-.13-.67-.2-1.44-.2-2.32,0-2.24.55-4.2,1.66-5.88s2.55-2.79,4.34-3.32c.48-.13.92-.2,1.32-.2.72,0,1.53.16,2.44.48l3.12,1.2-.84,4.52-4.84-1.8c-.51.24-.89.52-1.16.84-1.25.91-1.88,2.16-1.88,3.76,0,.27.05.75.16,1.44l.88,4.88h11.96l-1.36,5.44h-18.64c-.45,0-.84-.27-1.16-.8-.32-.53-.48-1.17-.48-1.92s.16-1.39.48-1.92Z"/>
      <path class="cls-7" d="M504.11,73.14c-1.32-1.33-1.99-3.16-2.02-5.48l-.04-16.64,4.28-1.2v16.44c0,1.15.29,2.01.88,2.58.59.57,1.41.86,2.48.86h3.68c1.81,0,3.19-.47,4.12-1.4l-2.36-11.64,4.24-2.04,2.08,10.04c.19.83.28,1.67.28,2.52,0,2.43-.78,4.36-2.34,5.8-1.56,1.44-3.65,2.16-6.26,2.16h-3.72c-2.21,0-3.98-.67-5.3-2ZM509.01,79.66h4.88v4.64h-4.88v-4.64Z"/>
      <path class="cls-7" d="M46.43,126.16v4.97h-5.36v-4.97h5.36ZM41.64,107.55h4.21l-.29,16.02h-3.64l-.29-16.02Z"/>
      <path class="cls-7" d="M50.89,116.66l.83-4.03,8.28,2.2c2.86.77,4.51,2.66,4.97,5.69l.4,2.56c.05.43.07.77.07,1.01,0,1.15-.3,2.27-.9,3.37-.6,1.09-1.48,1.98-2.63,2.66-1.15.68-2.52,1.03-4.1,1.03h-1.73c-1.68,0-3.01-.52-4-1.57-.98-1.04-1.48-2.42-1.48-4.12,0-.65.1-1.38.29-2.2l1.44-6.23-1.44-.36ZM54.72,125.57c.42.44,1,.67,1.75.67h1.69c1.66,0,2.83-.44,3.53-1.33l-.5-3.38c-.26-1.54-1.06-2.48-2.38-2.84l-3.2-.79-1.4,6.01c-.07.67.1,1.23.52,1.67Z"/>
      <path class="cls-7" d="M75.6,125.84c.66-.26,1.18-.67,1.57-1.22l-1.98-11.27,3.6-1.87,2.16,12.27c.1.67.43,1.25.99,1.75.56.49,1.28.74,2.14.74h1.66c.41,0,.76.24,1.06.72.3.48.45,1.06.45,1.73s-.15,1.25-.45,1.73c-.3.48-.65.72-1.06.72h-1.48c-2.45,0-4.24-.92-5.36-2.77-1.32,1.85-3.38,2.77-6.19,2.77h-4.93l-.47-4.9h5.65c1.1,0,1.99-.13,2.65-.4Z"/>
      <path class="cls-7" d="M84.65,130.43c-.29-.47-.43-1.05-.43-1.75s.14-1.28.43-1.75c.29-.47.64-.7,1.04-.7h3.17c1.7,0,2.98-.42,3.82-1.26l-2.12-10.47,3.82-1.84,1.87,9.04c.17.91.25,1.66.25,2.23,0,2.18-.7,3.93-2.09,5.24-1.39,1.31-3.28,1.96-5.65,1.96h-3.06c-.41,0-.76-.23-1.04-.7ZM90.02,105.9h4.39v4.17h-4.39v-4.17Z"/>
      <path class="cls-7" d="M108.23,130.19c-1.27-.62-2.25-1.51-2.93-2.66-.68-1.15-1.03-2.48-1.03-4,0-.74.1-1.57.29-2.48l1.08-4.93h3.46l-.97,4.54c-.12.48-.18,1.01-.18,1.58,0,1.27.4,2.26,1.21,2.95.8.7,1.96,1.04,3.47,1.04h11.12c-.29-.7-.43-1.48-.43-2.34v-7.96l3.82-.76v8.32c0,.79.26,1.45.79,1.96.53.52,1.18.77,1.94.77h1.8c.41,0,.76.24,1.06.72.3.48.45,1.06.45,1.73s-.15,1.25-.45,1.73c-.3.48-.65.72-1.06.72h-1.98c-1.01,0-1.93-.19-2.75-.58-.83-.38-1.53-.91-2.11-1.58-.17.19-.37.46-.61.79-.36.48-.76.83-1.19,1.04s-.98.32-1.66.32h-8.64c-1.73,0-3.23-.31-4.5-.94ZM111.36,110.97h9.21v3.67h-9.21v-3.67Z"/>
      <path class="cls-7" d="M144.51,131.13h-12.89c-.41,0-.76-.24-1.04-.72-.29-.48-.43-1.06-.43-1.73s.14-1.25.43-1.73c.29-.48.64-.72,1.04-.72h4.61v-8.93l3.56-.83v9.75h5.04c.72,0,1.3-.23,1.73-.7.43-.47.65-1.06.65-1.78v-4.28h3.56v4.71l-.04,1.26,5.94,1.62-2.34-11.88,3.64-1.94,2.34,12.06c.07.38.11.78.11,1.19,0,1.27-.43,2.42-1.3,3.46l-1.69,2.05-8.64-2.45c-.98,1.06-2.41,1.58-4.28,1.58Z"/>
      <path class="cls-7" d="M169.13,126.23c1.06,0,1.92-.11,2.59-.32.67-.22,1.24-.55,1.69-1.01l-.76-4c-.29-1.44-1.03-2.57-2.23-3.38l-3.42-2.3,1.62-4,4.03,2.66c2.18,1.46,3.47,3.44,3.85,5.94l.47,2.92c.07.43.11.86.11,1.3,0,1.25-.29,2.41-.88,3.49-.59,1.08-1.48,1.95-2.68,2.61-1.2.66-2.65.99-4.36.99h-5.62l-.47-4.9h6.05Z"/>
      <path class="cls-7" d="M186.88,131.92l1.69-.68v-15.08l3.71-.68v14.18c0,3.31-1.3,5.5-3.89,6.55l-4.9,1.98-1.91-4.1,5.29-2.16ZM188.39,106.94h4.39v4.17h-4.39v-4.17Z"/>
      <path class="cls-7" d="M196.24,109.28l3.85-1.08v22.46l-3.85,1.08v-22.46Z"/>
      <path class="cls-7" d="M222.98,116.66v13.86c0,1.32-.35,2.51-1.04,3.58-.7,1.07-1.66,1.79-2.88,2.18l-6.37,2.09-1.4-3.92,6.3-2.05,1.94-.65-.11-1.3-1.4.25c-.5.07-1.01.11-1.51.11h-3.67c-1.13,0-2.09-.36-2.88-1.08-.79-.72-1.27-1.66-1.44-2.81l-.5-3.67c-.1-.82-.14-1.4-.14-1.76,0-2.04.56-3.74,1.67-5.09,1.12-1.36,2.72-2.26,4.81-2.72l5.65-1.19,1.73,1.4c.84.72,1.26,1.64,1.26,2.77ZM219.2,126.38v-9.5l-4.75,1.01c-.96.19-1.67.55-2.12,1.06-.46.52-.68,1.22-.68,2.11,0,.19.02.5.07.94l.61,4.39h6.88Z"/>
      <path class="cls-7" d="M228.71,131.92l1.69-.68v-15.08l3.71-.68v14.18c0,3.31-1.3,5.5-3.89,6.55l-4.9,1.98-1.91-4.1,5.29-2.16Z"/>
      <path class="cls-7" d="M242.78,128.83c.29-.48.7-.92,1.22-1.33-.55-.98-.83-2.11-.83-3.38,0-.24.02-.6.07-1.08l.72-5.22c.17-.86.46-1.62.86-2.27l1.76-2.84h4.18c2.11,0,3.8.62,5.08,1.85,1.27,1.24,2.02,2.89,2.23,4.95l.47,4.5v.36c0,.38-.05.72-.14,1.01l-.07.86h3.46c.41,0,.76.24,1.06.72.3.48.45,1.06.45,1.73s-.15,1.25-.45,1.73c-.3.48-.65.72-1.06.72h-16.09v6.08l-3.82,1.08v-6.33c0-1.22.3-2.27.9-3.13ZM254.59,120.15c-.12-1.01-.48-1.81-1.08-2.41-.6-.6-1.45-.9-2.56-.9h-3.31l-.83,6.16c-.02.12-.04.31-.04.58,0,.84.24,1.49.72,1.96.48.47,1.16.7,2.05.7h5.62l-.58-6.08Z"/>
      <path class="cls-7" d="M266.81,136.64c-1-1.06-1.49-2.4-1.49-4.03v-1.51l-3.56.04c-.41,0-.76-.24-1.04-.72-.29-.48-.43-1.06-.43-1.73s.14-1.25.43-1.73c.29-.48.64-.72,1.04-.72h3.56v-6.98c0-1.13.43-2.12,1.3-2.99l1.87-1.87h5.54c1.15,0,2.23.24,3.24.72s1.82,1.17,2.43,2.07c.61.9.92,1.96.92,3.19,0,.5-.05.98-.14,1.44l-.9,4.43h3.6c.41,0,.76.24,1.06.72.3.48.45,1.06.45,1.73s-.15,1.25-.45,1.73c-.3.48-.65.72-1.06.72h-3.92l-.04,4.54c0,.46-.08.91-.25,1.35-.17.44-.4.83-.68,1.17l-1.8,2.12-5.54-1.4c-1.75-.46-3.13-1.21-4.12-2.27ZM276.58,122.35c.07-.33.11-.65.11-.94,0-.98-.31-1.75-.92-2.29-.61-.54-1.34-.81-2.18-.81h-4.75v7.92l7.02-.04.72-3.85ZM268.88,129.98v1.98c0,.79.24,1.47.72,2.03.48.56,1.13.94,1.94,1.13l4.1,1.04.04-6.19h-6.8Z"/>
      <path class="cls-7" d="M290.31,129.78c-.4-.18-.74-.44-1.03-.77-.65.7-1.4,1.22-2.27,1.58-.86.36-1.79.54-2.77.54h-1.12c-.41,0-.76-.24-1.04-.72-.29-.48-.43-1.06-.43-1.73s.14-1.25.43-1.73c.29-.48.64-.72,1.04-.72h1.37c.65,0,1.18-.16,1.6-.47.42-.31.76-.83,1.03-1.55l2.27-7.52c.19-.6.41-1.12.67-1.57.25-.44.57-.86.95-1.24l1.33-1.22,4.36,1.19c1.68.46,3.02,1.33,4.01,2.61,1,1.28,1.57,2.83,1.71,4.62l.4,5.51c.05.77-.08,1.49-.4,2.18-.31.68-.78,1.28-1.4,1.78l-1.55,1.26-7.74-1.58c-.55-.12-1.03-.27-1.42-.45ZM298,119.16c-.5-.66-1.19-1.11-2.05-1.35l-2.84-.79-2.45,8.21,8.6,1.73-.4-5.4c-.07-.94-.36-1.73-.86-2.39Z"/>
      <path class="cls-7" d="M312.86,135.86c-1.51-1.45-2.27-3.44-2.27-5.96,0-1.03.12-2.08.36-3.13l1.04-4.79h3.42l-1.04,4.86c-.14.65-.22,1.25-.22,1.8,0,1.42.43,2.52,1.3,3.31.86.79,2.08,1.19,3.64,1.19h3.6c1.01,0,1.83-.13,2.48-.38.65-.25,1.19-.62,1.62-1.1l-.22-1.55h-4.71c-1.25,0-2.26-.4-3.02-1.21-.77-.8-1.15-1.81-1.15-3.01,0-.17.02-.44.07-.83l1.01-6.73c.22-1.34.75-2.54,1.6-3.58.85-1.04,1.95-1.73,3.29-2.07l2.02-.54,1.3,3.82-2.84.72c-.5.12-.92.37-1.24.74s-.53.82-.63,1.35l-.97,6.98h4.79c1.08,0,1.99.32,2.72.97.73.65,1.15,1.52,1.24,2.63l.11,1.15c.02.14.04.36.04.65,0,1.18-.32,2.29-.95,3.35-.64,1.06-1.6,1.91-2.88,2.56-1.28.65-2.86.97-4.73.97h-2.56c-2.62,0-4.68-.73-6.19-2.18Z"/>
      <path class="cls-7" d="M348.61,131.13h-8.93c-2.04,0-3.67-.59-4.88-1.78-1.21-1.19-1.83-2.84-1.85-4.95l-.04-15.12,3.85-1.08v14.94c0,1.03.26,1.81.79,2.32.53.52,1.27.77,2.23.77h2.92l.65-7.24c.17-2.04.9-3.54,2.2-4.52,1.3-.97,3.02-1.4,5.18-1.28l1.73.14.79-2.05,7.09,3.71c1.17.62,2.09,1.45,2.75,2.47.66,1.02,1.12,2.29,1.39,3.8l.83,4.89c.05.38.07.67.07.86,0,1.2-.38,2.26-1.15,3.17l-1.58,1.83-9.79-2.48c-.96,1.06-2.38,1.58-4.25,1.58ZM351.5,125.75c.47-.32.74-.85.81-1.57l-.22-7.05-2.2-.22-.47-.04c-.79,0-1.42.22-1.87.65-.46.43-.72,1.07-.79,1.91l-.58,6.8h3.28c.89,0,1.57-.16,2.03-.49ZM360.43,119.79c-.32-.5-.73-.89-1.21-1.15l-4.14-2.16.25,6.91c.02.74-.08,1.48-.32,2.2l7.06,1.76-1.01-5.8c-.1-.67-.31-1.26-.63-1.76Z"/>
      <path class="cls-7" d="M371.82,136.6c-1.51-1.46-2.27-3.46-2.27-5.98,0-1.03.12-2.08.36-3.13l1.19-5.36h3.42l-1.19,5.44c-.14.65-.22,1.25-.22,1.8,0,1.44.43,2.56,1.3,3.35.86.79,2.08,1.19,3.64,1.19h2.38c1.08,0,1.98-.12,2.7-.36.72-.24,1.33-.61,1.84-1.12l-.29-2.02h-6.55l.47-4.18h11.48c.41,0,.76.24,1.06.72.3.48.45,1.06.45,1.73s-.15,1.25-.45,1.73c-.3.48-.65.72-1.06.72h-1.62c0,.19-.01.41-.04.65-.02.24-.05.42-.07.54-.1,1.15-.47,2.22-1.13,3.2-.66.98-1.61,1.78-2.86,2.38-1.25.6-2.77.9-4.57.9h-1.76c-2.62,0-4.68-.73-6.19-2.2Z"/>
      <path class="cls-7" d="M388.99,130.43c-.29-.47-.43-1.05-.43-1.75s.14-1.28.43-1.75.64-.7,1.04-.7h3.17c1.7,0,2.97-.42,3.82-1.26l-2.12-10.47,3.82-1.84,1.87,9.04c.17.91.25,1.66.25,2.23,0,2.18-.7,3.93-2.09,5.24-1.39,1.31-3.28,1.96-5.65,1.96h-3.06c-.41,0-.76-.23-1.04-.7ZM394.36,105.9h4.39v4.17h-4.39v-4.17Z"/>
      <path class="cls-7" d="M424.2,131.13h-13.21c-1.99,0-3.58-.6-4.77-1.8-1.19-1.2-1.79-2.84-1.82-4.93l-.04-15.12,3.85-1.08v14.94c0,1.03.26,1.81.79,2.32.53.52,1.27.77,2.23.77h4.54v-8.93l3.71-.83v9.75h5c.72,0,1.3-.23,1.75-.7.44-.47.67-1.06.67-1.78v-4.28h3.56v4.39c0,.38-.02.91-.07,1.58l5.98,1.62-2.34-11.88,3.6-1.94,2.38,12.06c.07.38.11.78.11,1.19,0,1.27-.43,2.42-1.3,3.46l-1.73,2.05-8.6-2.45c-.98,1.06-2.41,1.58-4.28,1.58Z"/>
      <path class="cls-7" d="M443.42,131.92l1.69-.68v-15.08l3.71-.68v14.18c0,3.31-1.3,5.5-3.89,6.55l-4.9,1.98-1.91-4.1,5.29-2.16Z"/>
      <path class="cls-7" d="M455.24,138.69c-.88-.72-1.43-1.67-1.67-2.84l-.43-2.3c-.1-.41-.14-.86-.14-1.37,0-.98.21-1.88.63-2.7.42-.82,1-1.49,1.75-2.02l-.83-4.46c-.14-.77-.22-1.52-.22-2.27,0-1.99.47-3.73,1.42-5.2.95-1.48,2.21-2.44,3.8-2.9.43-.12.85-.18,1.26-.18.72,0,1.42.14,2.09.43l2.84,1.08-.76,4.07-4.25-1.58c-.55.26-.97.56-1.26.9-.91.79-1.37,1.84-1.37,3.13,0,.46.05.91.14,1.37l.79,4.43,1.12-.04h9.79l-1.22,4.9h-9.79c-.53,0-.97.17-1.31.5s-.52.76-.52,1.26c0,.17.01.3.04.4l.43,2.2h9.57l-1.19,4.28h-7.59c-1.2,0-2.24-.36-3.11-1.08Z"/>
      <path class="cls-7" d="M476.75,110.72v13.39c0,.7-.08,1.33-.25,1.91l-.4,1.44,1.87-.4c1.06-.22,1.96-.47,2.7-.77.74-.3,1.38-.7,1.91-1.21l-.14-15.8,3.85-1.08v15.05c0,.86.28,1.58.85,2.14.56.56,1.35.85,2.36.85h1.01c.41,0,.76.23,1.04.7.29.47.43,1.05.43,1.75s-.14,1.28-.43,1.75c-.29.47-.64.7-1.04.7h-1.22c-1.15,0-2.14-.23-2.95-.7-.82-.47-1.45-1.13-1.91-2-.5.77-1.16,1.39-1.96,1.87-.8.48-1.83.86-3.08,1.15l-2.95.65-1.58-1.3c-.6-.46-1.05-1.01-1.35-1.67-.3-.66-.45-1.39-.45-2.18v-15.23l3.71-1.01Z"/>
      <path class="cls-7" d="M489.42,130.41c-.29-.48-.43-1.06-.43-1.73s.14-1.25.43-1.73c.29-.48.64-.72,1.04-.72h3.67v-17.28l3.67-.97v8.6c0,.58-.13,1.08-.4,1.51l-1.15,1.55.11.14,4.1-4.79c1.56-1.85,3.28-2.77,5.15-2.77.7,0,1.44.13,2.23.4l1.87.61c1.03.31,1.87.82,2.5,1.51.64.7,1.03,1.48,1.17,2.34l1.04,5.22c.12.65.18,1.22.18,1.73,0,1.34-.32,2.56-.95,3.64-.64,1.08-1.53,1.92-2.68,2.54-1.15.61-2.47.92-3.96.92h-16.56c-.41,0-.76-.24-1.04-.72ZM509.97,125.87c.58-.24,1.06-.59,1.44-1.04l-1.3-7.34-2.63-.83c-.79-.24-1.43-.36-1.91-.36-.6,0-1.16.15-1.69.45-.53.3-1.08.8-1.66,1.49l-4.46,5.26-.07,2.74h10.04c.91,0,1.66-.12,2.23-.36Z"/>
      <path class="cls-7" d="M518.11,109.28l3.85-1.08v22.46l-3.85,1.08v-22.46Z"/>
    </g>
  </g>
</svg>