<?xml version="1.0" encoding="utf-8"?>
<!-- Generator: Adobe Illustrator 24.1.1, SVG Export Plug-In . SVG Version: 6.00 Build 0)  -->
<svg version="1.1" xmlns="http://www.w3.org/2000/svg" xmlns:xlink="http://www.w3.org/1999/xlink" x="0px" y="0px"
	 viewBox="0 0 190 60" style="enable-background:new 0 0 190 60;" xml:space="preserve">
<style type="text/css">
	.st0{fill-rule:evenodd;clip-rule:evenodd;fill:url(#SVGID_1_);}
	.st1{fill:#333366;}
	.st2{fill:#993366;}
</style>
<g id="Background">
</g>
<g id="Logo">
	<g>
		
			<linearGradient id="SVGID_1_" gradientUnits="userSpaceOnUse" x1="-69.2632" y1="3.8296" x2="-28.1987" y2="44.8941" gradientTransform="matrix(-1 0 0 1 104.2545 0)">
			<stop  offset="0" style="stop-color:#333366"/>
			<stop  offset="1" style="stop-color:#993366"/>
		</linearGradient>
		<path class="st0" d="M143.01,6.43c-0.85,5.31,0.37,10.21,2.81,14.87c1.64,3.17,3.8,5.95,6.23,8.56c0.1,0.11,0.22,0.2,0.37,0.35
			c1.71-4.3,3.83-8.34,6.68-12.06c-0.38-0.27-0.73-0.53-1.1-0.77c-2.67-1.77-5.32-3.53-7.61-5.79c-2.54-2.53-4.4-5.48-5.7-8.79
			c-0.09-0.24-0.2-0.48-0.33-0.79C143.65,3.46,143.25,4.94,143.01,6.43z M164.64,21.96c1.24,1.45,1.88,3.24,2.32,5.32
			c1.78-5.69,5.73-8.46,11.54-9.11c-1.34-0.9-2.49-1.73-3.68-2.48c-1.48-0.93-3.08-1.64-4.83-1.95c-3.09-0.55-5.67,0.55-7.93,2.6
			c-0.55,0.49-1.13,0.94-1.59,1.33C162,19.26,163.41,20.52,164.64,21.96z M147.53,59.97c0-3.06,0-6.11,0-9.2
			c-2.63,0.55-5.35,0.99-8.11,0.77c0.34-0.16,0.69-0.26,1.03-0.36c2.3-0.65,4.61-1.31,6.9-1.96c0.38-0.11,0.53-0.31,0.58-0.73
			c0.67-5.65,1.89-11.18,3.85-16.53c0.19-0.52,0.12-0.84-0.26-1.25c-3.36-3.52-6.17-7.39-7.95-11.94
			c-2.03-5.19-2.44-10.45-0.56-15.76c0.37-1.04,0.91-2.01,1.37-3.02c0.07,0.02,0.14,0.04,0.21,0.06c0.08,0.22,0.16,0.44,0.23,0.66
			c1.18,3.61,2.95,6.84,5.56,9.62c1.9,2.02,4.09,3.63,6.38,5.15c0.97,0.64,1.93,1.28,2.67,1.77c0.74-0.61,1.28-1.04,1.83-1.56
			c2.17-2.01,4.66-3.18,7.66-3.01c1.81,0.1,3.52,0.59,5.05,1.51c1.83,1.11,3.58,2.39,5.39,3.58c0.29,0.19,0.66,0.35,1,0.36
			c2.82,0.07,5.57,0.62,8.22,1.56c0.48,0.16,0.95,0.4,1.42,0.61c-0.21,0.06-0.37,0.03-0.54-0.02c-3.48-0.92-7.03-1.36-10.63-0.99
			c-2.46,0.25-4.83,0.78-6.87,2.25c-3.2,2.31-4.38,5.63-4.73,9.4c-0.17,1.8-0.28,3.62-0.73,5.36c-1.15,4.43-4.05,7.6-7.8,10.03
			c-2.98,1.9-6.23,3.14-9.64,4.02c-0.43,0.11-0.65,0.27-0.68,0.75c-0.13,1.79-0.31,3.56-0.46,5.35c-0.09,1.18-0.16,2.36-0.24,3.53
			C147.64,59.99,147.58,59.98,147.53,59.97z M163.44,40.54c1.95-2.7,2.86-5.77,2.89-9.09c0.02-2.05-0.15-4.06-0.83-5.99
			c-1.03-2.91-3.09-4.95-5.59-6.74c-0.58,0.82-1.17,1.59-1.71,2.41c-1.95,2.95-3.49,6.1-4.81,9.37c-0.16,0.39-0.14,0.63,0.17,0.97
			c1.39,1.51,2.62,3.13,3.49,5.02c1.69,3.66,0.94,7.18-2.24,9.68c-1.33,1.04-2.91,1.8-4.38,2.69c-0.18,0.11-0.39,0.19-0.58,0.28
			C155.18,47.5,160.1,45.22,163.44,40.54z M155.18,44.67c1.96-2.12,2.35-4.52,1.29-7.19c-0.81-2.04-2.13-3.74-3.67-5.4
			c-1.98,5.43-3.27,10.93-4.12,16.63C151.16,47.71,153.43,46.59,155.18,44.67z"/>
	</g>
	<g>
		<path class="st1" d="M8.56,17.62c2.97,5.15,6.01,10.3,8.98,15.48H14.7L6.81,19.37l-3.4,3.4V33.1H1V10h2.41v11.52L14.93,10h1.22
			L8.56,17.62z"/>
		<path class="st1" d="M37.86,24.75c0,5.97-1.85,8.71-8.09,8.71c-6.24,0-8.12-2.74-8.12-8.71c0-2.87,0.5-5.08,1.98-6.7
			c1.58-1.55,3.96-1.81,6.14-1.81c2.18,0,4.59,0.23,6.11,1.81C37.4,19.57,37.86,21.85,37.86,24.75z M35.68,24.79
			c0-4.49-0.76-7.62-5.91-7.62c-5.18,0-5.94,3.14-5.94,7.62c0,4.52,0.69,7.76,5.94,7.76C34.96,32.54,35.68,29.31,35.68,24.79z"/>
		<path class="st1" d="M58.02,24.75c0,5.97-1.85,8.71-8.09,8.71c-6.24,0-8.12-2.74-8.12-8.71c0-2.87,0.5-5.08,1.98-6.7
			c1.58-1.55,3.96-1.81,6.14-1.81c2.18,0,4.59,0.23,6.11,1.81C57.56,19.57,58.02,21.85,58.02,24.75z M55.85,24.79
			c0-4.49-0.76-7.62-5.91-7.62c-5.18,0-5.94,3.14-5.94,7.62c0,4.52,0.69,7.76,5.94,7.76C55.12,32.54,55.85,29.31,55.85,24.79z"/>
		<path class="st1" d="M75.78,31.88c-1.25,1.19-3.17,1.58-5.91,1.58c-6.07,0-7.72-3.2-7.72-8.71c0-5.48,1.98-8.52,7.72-8.52
			c2.77,0,4.72,0.43,5.97,1.72l-0.46,0.79c-1.58-1.39-3.07-1.55-5.21-1.55c-5.05,0-5.74,3.14-5.74,7.59c0,4.46,0.69,7.72,5.61,7.72
			c2.05,0,3.6-0.17,5.25-1.39L75.78,31.88z"/>
		<path class="st1" d="M94.16,22.74V33.1h-2.11V22.74c0-3-0.73-5.58-4.19-5.58c-2.71,0-5.12,1.98-5.28,5.02V33.1h-2.11V10.03h2.11
			v9.18c1.49-1.52,3.63-2.97,6.27-2.97C92.97,16.24,94.16,18.68,94.16,22.74z"/>
		<path class="st1" d="M112.84,22.25V33.1h-2.11v-1.75c-1.39,1.15-2.97,2.11-5.54,2.11c-3.96,0-6.4-1.52-6.4-5.15
			c0-3.7,2.71-4.95,6.07-4.95h5.88v-1.12c0-3.47-2.01-5.08-6.01-5.08c-1.72,0-3.53,0.63-4.85,1.82l-0.43-0.66
			c1.29-1.29,3.43-2.08,6.24-2.08C110.36,16.24,112.84,18.15,112.84,22.25z M110.72,28.25v-3.96h-5.02c-3.33,0-4.82,1.62-4.82,3.9
			c0,3,1.98,4.36,5.25,4.36C108.74,32.54,110.72,31.16,110.72,28.25z"/>
		<path class="st1" d="M131.51,22.25V33.1h-2.11v-1.75c-1.39,1.15-2.97,2.11-5.54,2.11c-3.96,0-6.4-1.52-6.4-5.15
			c0-3.7,2.71-4.95,6.07-4.95h5.87v-1.12c0-3.47-2.01-5.08-6.01-5.08c-1.72,0-3.53,0.63-4.85,1.82l-0.43-0.66
			c1.29-1.29,3.43-2.08,6.24-2.08C129.04,16.24,131.51,18.15,131.51,22.25z M129.4,28.25v-3.96h-5.02c-3.33,0-4.82,1.62-4.82,3.9
			c0,3,1.98,4.36,5.25,4.36C127.42,32.54,129.4,31.16,129.4,28.25z"/>
	</g>
	
		<text transform="matrix(1 0 0 1 11.5749 -20.4497)" style="display:none; font-family:'Sumptuous-Light'; font-size:33px; letter-spacing:1;">Koochaa</text>
	<g>
		<path class="st2" d="M2.76,48.68c-0.28,0.78-0.42,1.58-0.42,2.38c0,2.12,1.17,3.18,3.51,3.18c0.63,0,1.23-0.08,1.8-0.23
			c0.57-0.15,1.04-0.38,1.42-0.69c0.38-0.3,0.57-0.65,0.57-1.04c0-0.23-0.11-0.42-0.33-0.55c-0.22-0.14-0.54-0.2-0.95-0.2H7.39
			c-0.26,0-0.43-0.16-0.51-0.48l-0.17-0.72c-0.03-0.14,0.03-0.2,0.18-0.2h4.39v1.41H10.6c0.09,0.11,0.17,0.25,0.22,0.41
			c0.05,0.16,0.08,0.31,0.08,0.44c0,0.41-0.12,0.8-0.37,1.19c-0.25,0.39-0.58,0.73-1.01,1.03c-0.43,0.3-0.96,0.54-1.61,0.72
			s-1.33,0.27-2.07,0.27C2.62,55.58,1,54.07,1,51.05c0-0.45,0.05-0.94,0.14-1.47c0.1-0.53,0.23-1,0.41-1.39L2.76,48.68z
			 M11.11,51.53v-1.41h1.45v1.41H11.11z"/>
		<path class="st2" d="M12.26,51.53v-1.41h2.53v1.41H12.26z"/>
		<path class="st2" d="M18.12,45.76c0.25,0.84,0.38,1.68,0.38,2.52c0,1.05-0.26,1.86-0.78,2.41c-0.52,0.56-1.29,0.84-2.3,0.84h-0.92
			v-1.41h0.92c0.61,0,1.05-0.14,1.33-0.43c0.28-0.28,0.42-0.75,0.42-1.39c0-0.69-0.1-1.43-0.29-2.23L18.12,45.76z M15.62,43.4
			l1.13-1.13l1.15,1.14l-1.14,1.13L15.62,43.4z"/>
		<path class="st2" d="M20.1,40.7h1.32v10.82H20.1V40.7z"/>
		<path class="st2" d="M25.17,50.51c0-0.37-0.05-0.79-0.16-1.26c-0.1-0.47-0.25-0.93-0.45-1.39l1.27-0.45l0.48,1.5
			c0.09,0.27,0.2,0.5,0.32,0.67c0.13,0.18,0.28,0.31,0.46,0.4c0.18,0.09,0.39,0.14,0.63,0.14h0.3v1.41H27.8
			c-0.39,0-0.68-0.04-0.88-0.11s-0.36-0.18-0.48-0.33c-0.09,1.2-0.55,2.19-1.37,2.97c-0.83,0.78-2,1.31-3.53,1.59l-0.47-1.2
			C23.79,53.93,25.16,52.62,25.17,50.51z"/>
		<path class="st2" d="M27.71,51.53v-1.41h2.53v1.41H27.71z"/>
		<path class="st2" d="M29.59,54.05l1.09-1.09l1.1,1.09l-1.1,1.11L29.59,54.05z M34.2,45.76c0.25,0.84,0.38,1.68,0.38,2.52
			c0,1.14-0.28,1.97-0.84,2.48c-0.56,0.51-1.44,0.77-2.64,0.77h-1.16v-1.41h1.16c0.41,0,0.74-0.02,0.99-0.07
			c0.25-0.05,0.47-0.14,0.65-0.27c0.18-0.13,0.31-0.32,0.39-0.55c0.08-0.24,0.11-0.55,0.11-0.93c0-0.69-0.1-1.43-0.29-2.23
			L34.2,45.76z M32.18,54.05l1.09-1.09l1.1,1.09l-1.1,1.11L32.18,54.05z"/>
		<path class="st2" d="M36.18,40.7h1.32v10.82h-1.32V40.7z"/>
		<path class="st2" d="M49.28,47.32l1.32-0.45c0.48,1.23,0.73,2.42,0.73,3.57c0,1.48-0.44,2.62-1.3,3.42
			c-0.87,0.79-2.07,1.19-3.6,1.19c-3.25,0-4.87-1.5-4.87-4.5c0-1.09,0.23-2.21,0.7-3.35l1.21,0.49c-0.38,1.01-0.57,1.95-0.57,2.82
			c0,2.13,1.19,3.19,3.58,3.19c2.33,0,3.5-1.16,3.51-3.49C49.99,49.26,49.75,48.3,49.28,47.32z M45.17,46.2l1.13-1.13l1.15,1.14
			l-1.14,1.13L45.17,46.2z"/>
		<path class="st2" d="M52.93,40.7h1.32v10.82h-1.32V40.7z"/>
		<path class="st2" d="M58,50.51c0-0.37-0.05-0.79-0.16-1.26c-0.1-0.47-0.25-0.93-0.45-1.39l1.27-0.45l0.48,1.5
			c0.09,0.27,0.2,0.5,0.32,0.67c0.13,0.18,0.28,0.31,0.46,0.4c0.18,0.09,0.39,0.14,0.63,0.14h0.3v1.41h-0.21
			c-0.39,0-0.68-0.04-0.88-0.11s-0.36-0.18-0.48-0.33c-0.09,1.2-0.55,2.19-1.37,2.97c-0.83,0.78-2,1.31-3.53,1.59l-0.47-1.2
			C56.62,53.93,57.99,52.62,58,50.51z"/>
		<path class="st2" d="M60.54,51.53v-1.41h1.42c0.89,0,1.65-0.1,2.27-0.31c0.27-0.09,0.59-0.22,0.96-0.39
			c0.37-0.17,0.68-0.32,0.93-0.45c0.24-0.13,0.7-0.36,1.36-0.7l0.61-0.32c-0.06-0.02-0.14-0.05-0.23-0.09
			c-0.09-0.04-0.25-0.11-0.47-0.2c-0.22-0.09-0.47-0.2-0.74-0.3c-0.61-0.25-1.08-0.43-1.38-0.54c-0.31-0.11-0.54-0.16-0.71-0.16
			c-0.29,0-0.57,0.08-0.85,0.25c-0.28,0.17-0.52,0.38-0.72,0.64l-0.21,0.27l-1.18-0.59l0.12-0.2c0.34-0.55,0.75-0.98,1.25-1.29
			c0.49-0.31,1.03-0.47,1.61-0.47c0.54,0,1.33,0.25,2.37,0.75c0.82,0.4,1.49,0.69,2.02,0.87c0.53,0.18,1.02,0.28,1.47,0.3
			l-0.02,1.33c-0.31,0.04-0.68,0.15-1.11,0.33c-0.44,0.18-1.06,0.49-1.88,0.92c-1.3,0.69-2.24,1.13-2.82,1.34
			c-0.79,0.28-1.7,0.41-2.73,0.41H60.54z M64.51,54.05l1.13-1.13l1.15,1.14l-1.14,1.13L64.51,54.05z"/>
		<path class="st2" d="M75.06,51.53h-0.19c-0.97,0-1.7-0.25-2.19-0.75c-0.49-0.5-0.73-1.31-0.73-2.41V40.7h1.32v7.67
			c0,0.64,0.13,1.09,0.39,1.35c0.26,0.27,0.67,0.4,1.21,0.4h0.19V51.53z"/>
		<path class="st2" d="M79.64,55.75c-1.75-0.83-2.79-2.24-3.12-4.22h-1.77v-1.41h1.66c0.03-0.57,0.07-1.08,0.14-1.53
			c0.06-0.45,0.16-0.89,0.29-1.31c0.13-0.42,0.29-0.78,0.48-1.05c0.19-0.28,0.44-0.5,0.74-0.67c0.3-0.17,0.64-0.25,1.04-0.25
			c0.63,0,1.13,0.22,1.5,0.66c0.37,0.44,0.55,1.03,0.55,1.75c0,0.61-0.16,1.21-0.47,1.8c-0.32,0.58-0.74,1.06-1.26,1.43
			c-0.53,0.37-1.08,0.57-1.66,0.58c0.19,1.09,0.74,1.92,1.63,2.5c0-1.25,0.27-2.21,0.8-2.89s1.31-1.02,2.35-1.02h0.26v1.41h-0.27
			c-1.32,0-1.98,0.86-1.98,2.58c0,0.27,0.01,0.5,0.03,0.72L79.64,55.75z M77.7,50.13c0.61-0.02,1.14-0.26,1.57-0.73
			c0.43-0.47,0.65-1.02,0.65-1.68c0-0.34-0.08-0.6-0.23-0.78c-0.15-0.18-0.35-0.27-0.59-0.27c-0.44,0-0.77,0.28-0.98,0.85
			C77.89,48.08,77.76,48.95,77.7,50.13z"/>
		<path class="st2" d="M84.95,50.4c-0.66,0.75-1.39,1.13-2.19,1.13h-0.24v-1.41h0.2c0.22,0,0.43-0.05,0.63-0.15
			c0.19-0.1,0.37-0.25,0.52-0.44c0.15-0.19,0.28-0.38,0.39-0.56c0.1-0.18,0.21-0.4,0.33-0.66c0.69-1.51,1.58-2.27,2.66-2.27
			c0.81,0,1.48,0.3,1.99,0.9c0.51,0.6,0.77,1.33,0.77,2.18c0,0.82-0.2,1.45-0.59,1.9c-0.4,0.45-0.97,0.67-1.71,0.67
			c-0.5,0-0.96-0.11-1.4-0.32C85.86,51.17,85.41,50.84,84.95,50.4z M85.61,49.14c0.69,0.8,1.35,1.2,1.98,1.2
			c0.74,0,1.11-0.36,1.11-1.09c0-0.52-0.13-0.94-0.38-1.26c-0.26-0.32-0.6-0.48-1.04-0.48C86.55,47.5,86,48.05,85.61,49.14z"/>
		<path class="st2" d="M93.67,48.31c0-1.54,1.32-2.71,3.96-3.53l-0.05-0.35l1.24-0.26l0.64,4.6c0.06,0.43,0.21,0.77,0.46,1
			s0.59,0.35,1.01,0.35h0.23v1.41h-0.27c-1.4,0-2.24-0.62-2.52-1.85c-0.64,0.55-1.34,0.82-2.11,0.82c-0.76,0-1.38-0.18-1.87-0.55
			C93.91,49.58,93.67,49.03,93.67,48.31z M97.83,46.04c-0.94,0.35-1.65,0.7-2.11,1.05c-0.46,0.35-0.7,0.73-0.7,1.13
			c0,0.32,0.1,0.56,0.31,0.72c0.21,0.16,0.5,0.25,0.89,0.25c0.47,0,0.89-0.13,1.27-0.39c0.38-0.26,0.57-0.61,0.57-1.03
			c0-0.16-0.01-0.3-0.03-0.45L97.83,46.04z"/>
		<path class="st2" d="M106.82,49.73c0.45,0.26,1.23,0.39,2.36,0.39h0.34v1.41h-0.34c-1.34,0-2.48-0.32-3.42-0.96
			c-0.92,0.64-2.28,0.96-4.06,0.96h-0.83v-1.41h0.85c1.56,0,2.52-0.13,2.88-0.39c-0.76-0.45-1.33-0.88-1.71-1.29
			c-0.38-0.41-0.57-0.83-0.57-1.28c0-0.29,0.1-0.55,0.3-0.78s0.47-0.4,0.81-0.54c0.34-0.13,0.7-0.23,1.09-0.29s0.8-0.09,1.23-0.09
			c0.4,0,0.79,0.03,1.18,0.1c0.38,0.07,0.74,0.16,1.08,0.29c0.34,0.13,0.61,0.3,0.82,0.53c0.21,0.23,0.31,0.49,0.31,0.78
			c0,0.38-0.2,0.79-0.61,1.23C108.12,48.84,107.55,49.29,106.82,49.73z M105.73,48.95c0.5-0.28,0.96-0.57,1.38-0.87
			s0.63-0.55,0.63-0.74c0-0.34-0.67-0.52-2.02-0.52c-1.35,0-2.02,0.17-2.02,0.52c0,0.2,0.21,0.45,0.64,0.77
			C104.78,48.42,105.24,48.7,105.73,48.95z M109.37,51.53v-1.41h0.71v1.41H109.37z"/>
		<path class="st2" d="M112.22,50.4c-0.66,0.75-1.39,1.13-2.19,1.13h-0.24v-1.41h0.2c0.22,0,0.43-0.05,0.63-0.15
			c0.19-0.1,0.37-0.25,0.52-0.44c0.15-0.19,0.28-0.38,0.39-0.56c0.1-0.18,0.21-0.4,0.33-0.66c0.69-1.51,1.58-2.27,2.66-2.27
			c0.81,0,1.48,0.3,1.99,0.9c0.51,0.6,0.77,1.33,0.77,2.18c0,0.82-0.2,1.45-0.59,1.9c-0.4,0.45-0.97,0.67-1.71,0.67
			c-0.5,0-0.96-0.11-1.4-0.32C113.12,51.17,112.67,50.84,112.22,50.4z M112.88,49.14c0.69,0.8,1.35,1.2,1.98,1.2
			c0.74,0,1.11-0.36,1.11-1.09c0-0.52-0.13-0.94-0.38-1.26c-0.26-0.32-0.6-0.48-1.04-0.48C113.82,47.5,113.27,48.05,112.88,49.14z"
			/>
		<path class="st2" d="M121.98,51.53h-0.19c-0.97,0-1.7-0.25-2.19-0.75c-0.49-0.5-0.73-1.31-0.73-2.41V40.7h1.32v7.67
			c0,0.64,0.13,1.09,0.39,1.35c0.26,0.27,0.67,0.4,1.21,0.4h0.19V51.53z"/>
		<path class="st2" d="M121.69,51.53v-1.41h1.42c0.89,0,1.65-0.1,2.27-0.31c0.27-0.09,0.59-0.22,0.96-0.39
			c0.37-0.17,0.68-0.32,0.93-0.45c0.24-0.13,0.7-0.36,1.36-0.7l0.61-0.32c-0.06-0.02-0.14-0.05-0.23-0.09
			c-0.09-0.04-0.25-0.11-0.47-0.2c-0.22-0.09-0.47-0.2-0.74-0.3c-0.61-0.25-1.08-0.43-1.38-0.54c-0.31-0.11-0.54-0.16-0.71-0.16
			c-0.29,0-0.57,0.08-0.85,0.25c-0.28,0.17-0.52,0.38-0.72,0.64l-0.21,0.27l-1.18-0.59l0.12-0.2c0.34-0.55,0.75-0.98,1.25-1.29
			c0.49-0.31,1.03-0.47,1.61-0.47c0.54,0,1.33,0.25,2.37,0.75c0.82,0.4,1.49,0.69,2.02,0.87c0.53,0.18,1.02,0.28,1.47,0.3
			l-0.02,1.33c-0.31,0.04-0.68,0.15-1.11,0.33c-0.44,0.18-1.06,0.49-1.88,0.92c-1.3,0.69-2.24,1.13-2.82,1.34
			c-0.79,0.28-1.7,0.41-2.73,0.41H121.69z M125.65,54.05l1.13-1.13l1.15,1.14l-1.14,1.13L125.65,54.05z"/>
	</g>
	<text transform="matrix(1 0 0 1 -7.7457 113.05)" style="font-family:'Vazir'; font-size:14px;">یــنارــیا نارــجاـهـم هـکــبـش</text>
</g>
</svg>
